<svg width="228" height="54" viewBox="0 0 228 54" fill="none" xmlns="http://www.w3.org/2000/svg">
<path d="M94.4733 26.1903L89.5011 19.1598V31.3299H86.4521V13.9717H89.1259L94.8955 21.972L100.712 13.9717H103.386V31.3299H100.337V19.2082L95.3177 26.1903H94.4733Z" fill="#0F1728"/>
<path d="M105.486 24.5905C105.486 23.6208 105.674 22.748 106.002 21.8752C106.331 21.0025 106.847 20.2752 107.456 19.6448C108.066 19.0145 108.817 18.5296 109.661 18.1418C110.505 17.7539 111.444 17.6084 112.476 17.6084C113.507 17.6084 114.446 17.8023 115.29 18.1418C116.134 18.5296 116.885 19.0145 117.495 19.6448C118.104 20.2752 118.62 21.0025 118.949 21.8752C119.277 22.748 119.465 23.6208 119.465 24.5905C119.465 24.7844 119.465 24.9784 119.418 25.1238C119.371 25.2693 119.371 25.3663 119.371 25.5117H108.441C108.535 26.0451 108.723 26.5299 108.957 26.9663C109.239 27.4027 109.52 27.7906 109.896 28.0815C110.271 28.3724 110.646 28.6149 111.115 28.7603C111.537 28.9058 112.006 29.0028 112.476 29.0028C113.226 29.0028 113.883 28.8573 114.446 28.4694C115.009 28.13 115.431 27.6936 115.759 27.1118H118.996C118.808 27.6936 118.48 28.227 118.104 28.7603C117.729 29.2937 117.213 29.7786 116.697 30.1665C116.134 30.5543 115.525 30.8938 114.821 31.1362C114.117 31.3786 113.367 31.4756 112.522 31.4756C111.49 31.4756 110.599 31.2816 109.708 30.9422C108.864 30.5543 108.113 30.0695 107.503 29.4392C106.894 28.8088 106.378 28.0815 106.049 27.2573C105.674 26.4815 105.486 25.5602 105.486 24.5905ZM112.522 20.1297C112.006 20.1297 111.537 20.2267 111.115 20.3721C110.693 20.5176 110.318 20.76 109.943 21.051C109.614 21.3419 109.333 21.6813 109.051 22.0692C108.817 22.4571 108.629 22.8934 108.535 23.3298H116.322C116.228 22.8934 116.041 22.4571 115.806 22.0692C115.571 21.6813 115.29 21.3419 114.962 21.051C114.633 20.76 114.258 20.5661 113.836 20.3721C113.461 20.2267 112.992 20.1297 112.522 20.1297Z" fill="#0F1728"/>
<path d="M133.602 31.3301H123.939L123.516 34.1424H120.937V28.6634H121.968C122.344 28.3239 122.672 27.8876 123 27.4512C123.329 27.0148 123.563 26.5299 123.798 25.9481C124.032 25.4147 124.22 24.7844 124.361 24.1056C124.501 23.4268 124.642 22.6995 124.689 21.8752L125.017 18.0933H135.29V28.6634H136.651V34.1424H134.024L133.602 31.3301ZM127.55 22.9904C127.504 23.6692 127.363 24.2996 127.269 24.8329C127.128 25.3663 126.988 25.8511 126.753 26.336C126.565 26.7724 126.331 27.2088 126.049 27.5967C125.768 27.9845 125.44 28.324 125.111 28.7118H132.288V20.9055H127.785L127.55 22.9904Z" fill="#0F1728"/>
<path d="M157.225 28.0328H149.486L148.172 31.3299H144.936L151.925 13.9717H154.833L161.822 31.3299H158.586L157.225 28.0328ZM150.564 25.2691H156.1L153.426 18.5779L153.332 18.1415L153.238 18.5779L150.564 25.2691Z" fill="#0F1728"/>
<path d="M163.2 31.3298V18.1899H169.157C169.814 18.1899 170.377 18.2869 170.94 18.4324C171.456 18.5778 171.925 18.8203 172.3 19.1597C172.676 19.4506 172.957 19.8385 173.145 20.3234C173.332 20.8082 173.426 21.2931 173.426 21.8749C173.426 22.1659 173.379 22.4083 173.285 22.6992C173.192 22.9416 173.098 23.1841 172.91 23.4265C172.722 23.6689 172.582 23.8629 172.394 24.0083C172.206 24.1538 171.972 24.2993 171.784 24.3962C172.113 24.4932 172.394 24.6387 172.676 24.8326C172.957 25.0266 173.238 25.269 173.426 25.5114C173.661 25.7539 173.801 26.0448 173.942 26.3842C174.083 26.7236 174.13 27.063 174.13 27.4024C174.13 28.1297 173.989 28.7116 173.754 29.1964C173.473 29.6813 173.145 30.1177 172.722 30.4086C172.3 30.6995 171.831 30.9419 171.268 31.0874C170.752 31.2329 170.189 31.2814 169.627 31.2814H163.2V31.3298ZM166.202 23.475H169.017C169.204 23.475 169.392 23.4265 169.58 23.378C169.767 23.3295 169.908 23.2326 170.049 23.0871C170.189 22.9416 170.283 22.7962 170.377 22.6507C170.471 22.5053 170.471 22.3113 170.471 22.1174C170.471 21.9234 170.424 21.7295 170.377 21.584C170.283 21.3901 170.189 21.2446 170.049 21.1476C169.908 21.0022 169.767 20.9052 169.58 20.8567C169.392 20.8082 169.204 20.7597 169.017 20.7597H166.202V23.475ZM169.486 28.76C169.72 28.76 169.955 28.7116 170.143 28.6631C170.33 28.5661 170.518 28.4691 170.658 28.3237C170.799 28.1782 170.94 28.0327 171.034 27.8388C171.128 27.6449 171.174 27.4509 171.174 27.2085C171.174 27.0145 171.128 26.8206 171.034 26.6266C170.94 26.4327 170.846 26.2872 170.658 26.1418C170.471 25.9963 170.33 25.8993 170.143 25.8024C169.955 25.7054 169.72 25.7054 169.486 25.7054H166.202V28.8085H169.486V28.76Z" fill="#0F1728"/>
<path d="M175.555 24.5905C175.555 23.6208 175.742 22.748 176.071 21.8752C176.399 21.0025 176.915 20.2752 177.525 19.6448C178.135 19.0145 178.885 18.5296 179.729 18.1418C180.574 17.7539 181.512 17.6084 182.544 17.6084C183.576 17.6084 184.514 17.8023 185.358 18.1418C186.203 18.5296 186.953 19.0145 187.563 19.6448C188.173 20.2752 188.689 21.0025 189.017 21.8752C189.346 22.6995 189.533 23.6208 189.533 24.5905C189.533 24.7844 189.533 24.9784 189.486 25.1238C189.439 25.2693 189.439 25.3663 189.439 25.5117H178.463C178.557 26.0451 178.744 26.5299 178.979 26.9663C179.26 27.4027 179.542 27.7906 179.917 28.0815C180.292 28.3724 180.668 28.6149 181.137 28.7603C181.559 28.9058 182.028 29.0028 182.497 29.0028C183.248 29.0028 183.904 28.8573 184.467 28.4694C185.03 28.13 185.452 27.6936 185.781 27.1118H189.017C188.83 27.6936 188.501 28.227 188.126 28.7603C187.751 29.2937 187.235 29.7786 186.719 30.1665C186.156 30.5543 185.546 30.8938 184.842 31.1362C184.139 31.3786 183.388 31.4756 182.544 31.4756C181.512 31.4756 180.621 31.2816 179.729 30.9422C178.885 30.5543 178.135 30.0695 177.525 29.4392C176.915 28.8088 176.399 28.0815 176.071 27.2573C175.695 26.4815 175.555 25.5602 175.555 24.5905ZM182.544 20.1297C182.028 20.1297 181.559 20.2267 181.137 20.3721C180.715 20.5176 180.339 20.76 179.964 21.051C179.589 21.3419 179.354 21.6813 179.073 22.0692C178.838 22.4571 178.651 22.8934 178.557 23.3298H186.343C186.25 22.8934 186.062 22.4571 185.827 22.0692C185.593 21.6813 185.311 21.3419 184.983 21.051C184.655 20.76 184.279 20.5661 183.857 20.3721C183.482 20.2267 183.06 20.1297 182.544 20.1297Z" fill="#0F1728"/>
<path d="M192.816 18.1899H195.818V23.475H201.963V18.1899H204.965V31.3298H201.963V26.1902H195.818V31.3298H192.816V18.1899Z" fill="#0F1728"/>
<path d="M207.395 18.1903H210.397V23.4268H213.164C213.305 22.6511 213.586 21.8753 213.962 21.1965C214.384 20.5176 214.853 19.8873 215.463 19.4025C216.072 18.8691 216.729 18.4812 217.527 18.1903C218.277 17.8994 219.121 17.7539 220.013 17.7539C221.045 17.7539 221.983 17.9479 222.827 18.2873C223.671 18.6752 224.422 19.16 225.032 19.7903C225.642 20.4207 226.158 21.1965 226.486 22.0207C226.814 22.845 227.002 23.7663 227.002 24.736C227.002 25.7057 226.814 26.627 226.486 27.4512C226.158 28.2755 225.642 29.0513 225.032 29.6816C224.422 30.312 223.671 30.8453 222.827 31.1847C221.983 31.5241 221.045 31.7181 220.013 31.7181C219.121 31.7181 218.277 31.5726 217.527 31.2817C216.776 30.9908 216.072 30.6029 215.463 30.0695C214.853 29.5362 214.384 28.9543 213.962 28.2755C213.586 27.5967 213.305 26.8209 213.164 26.0451H210.397V31.2332H207.395V18.1903ZM216.072 24.736C216.072 25.3663 216.166 25.9482 216.401 26.4815C216.635 27.0149 216.917 27.4512 217.245 27.8391C217.573 28.227 218.043 28.5179 218.512 28.7604C218.981 28.9543 219.497 29.0998 220.06 29.0998C220.622 29.0998 221.138 29.0028 221.607 28.7604C222.077 28.5179 222.499 28.227 222.874 27.8391C223.249 27.4512 223.531 27.0149 223.718 26.4815C223.906 25.9482 224.047 25.3663 224.047 24.736C224.047 24.1057 223.953 23.5238 223.718 23.039C223.484 22.5541 223.202 22.0692 222.874 21.6813C222.499 21.2934 222.077 21.0025 221.607 20.7601C221.138 20.5661 220.622 20.4207 220.06 20.4207C219.497 20.4207 218.981 20.5176 218.465 20.7601C217.996 20.954 217.527 21.2934 217.198 21.6813C216.823 22.0692 216.541 22.5056 216.354 23.039C216.166 23.5723 216.072 24.1057 216.072 24.736Z" fill="#0F1728"/>
<path d="M93.3935 50.0941H92.3146L91.4703 46.3607L90.2976 49.2699H89.5471L88.3744 46.3607L87.53 50.0941H86.4512L87.8584 44.3242H88.6558L89.9223 47.6213L91.1888 44.3242H91.9863L93.3935 50.0941Z" fill="#1C538E"/>
<path d="M98.9291 49.1244V50.0941H95.5518V44.3242H98.8822V45.294H96.5837V46.4576H98.6946V47.4274H96.5837V49.0759H98.9291V49.1244Z" fill="#1C538E"/>
<path d="M106.199 49.2214V51.2578H105.261V50.2396H101.837V51.2578H100.898V49.2214H101.508C101.837 48.4941 101.93 47.7668 101.93 46.797V44.3242H105.589V49.2214H106.199ZM102.54 49.2214H104.557V45.294H102.915V46.7486C102.915 47.7668 102.822 48.4941 102.54 49.2214Z" fill="#1C538E"/>
<path d="M109.483 44.3242V48.3486L112.204 44.3242H113.142V50.0941H112.11V46.0697L109.389 50.0941H108.451V44.3242H109.483Z" fill="#1C538E"/>
<path d="M120.881 49.1244V51.2578H119.943V50.0941H115.815V44.3242H116.847V49.1244H119.193V44.3242H120.225V49.1244H120.881Z" fill="#1C538E"/>
<path d="M124.165 44.3242V48.3486L126.885 44.3242H127.824V50.0941H126.792V46.0697L124.071 50.0941H123.133V44.3242H124.165Z" fill="#1C538E"/>
<path d="M135.189 44.3242V50.0941H134.157V47.5728H131.483V50.0941H130.451V44.3242H131.483V46.5546H134.157V44.3242H135.189Z" fill="#1C538E"/>
<path d="M137.532 47.2337C137.532 45.3912 138.799 44.2275 140.534 44.2275C141.379 44.2275 142.035 44.5185 142.551 44.8579L141.942 45.7791C141.613 45.5367 141.144 45.2942 140.534 45.2942C139.455 45.2942 138.658 46.0215 138.658 47.2337C138.658 48.3974 139.455 49.1732 140.534 49.1732C141.144 49.1732 141.613 48.9307 141.942 48.6883L142.551 49.6095C142.035 49.949 141.426 50.2399 140.534 50.2399C138.799 50.2399 137.532 49.0277 137.532 47.2337Z" fill="#1C538E"/>
<path d="M148.276 50.0941L145.837 47.2819V50.0941H144.805V44.3242H145.837V46.894L147.947 44.3242H149.355L146.962 46.991L149.73 50.0941H148.276Z" fill="#1C538E"/>
<path d="M152.778 44.3242V48.3486L155.499 44.3242H156.437V50.0941H155.405V46.0697L152.684 50.0941H151.746V44.3242H152.778Z" fill="#1C538E"/>
<path d="M160.143 44.3244V48.3488L162.864 44.3244H163.802V50.0943H162.77V46.0699L160.049 50.0943H159.111V44.3244H160.143ZM161.504 44.1305C160.753 44.1305 160.331 43.6941 160.331 42.9668H160.988C160.988 43.3547 161.175 43.5486 161.504 43.5486C161.832 43.5486 162.02 43.3062 162.02 42.9668H162.676C162.676 43.6941 162.254 44.1305 161.504 44.1305Z" fill="#1C538E"/>
<path d="M175.34 49.1244V51.2578H174.402V50.0941H170.321V44.3242H171.353V49.1244H173.699V44.3242H174.731V49.1244H175.34Z" fill="#1C538E"/>
<path d="M180.969 49.1244V50.0941H177.592V44.3242H180.922V45.294H178.624V46.4576H180.735V47.4274H178.624V49.0759H180.969V49.1244Z" fill="#1C538E"/>
<path d="M188.1 44.3242V50.0941H187.068V47.5728H184.394V50.0941H183.362V44.3242H184.394V46.5546H187.068V44.3242H188.1Z" fill="#1C538E"/>
<path d="M194.339 45.3428H192.791V50.143H191.806V45.3428H190.258V44.373H194.339V45.3428Z" fill="#1C538E"/>
<path d="M200.39 46.1182C200.39 47.1849 199.781 47.9607 198.514 47.9607H197.576V50.0941H196.544V44.3242H198.514C199.734 44.3242 200.39 45.1 200.39 46.1182ZM199.265 46.1182C199.265 45.5364 198.936 45.294 198.373 45.294H197.576V46.991H198.373C198.936 46.991 199.265 46.7001 199.265 46.1182Z" fill="#1C538E"/>
<path d="M48.5936 42.6565C48.5936 42.6565 59.3236 32.6331 52.6076 24.1443C46.6257 16.5696 37.3482 25.9237 23.6039 22.4955C11.4214 19.4591 3.65895 11.7701 3.1123 0C3.1123 0 0.988169 7.21553 1.98776 12.9292C2.98735 18.6428 4.78348 20.2753 4.78348 20.2753C4.78348 20.2753 3.37781 19.9652 2.05023 17.647C0.956932 15.737 0.410281 12.4394 0.410281 12.4394C0.410281 12.4394 -0.823587 20.8793 0.988169 26.5767C3.26848 33.7759 9.21916 36.2083 9.21916 36.2083C9.21916 36.2083 6.68895 36.649 4.11189 34.739C2.50317 33.5473 1.55044 31.8006 1.55044 31.8006C1.55044 31.8006 4.56482 47.0969 15.5915 47.3254C26.6339 47.554 31.1945 42.3137 34.8805 43.8319C38.5665 45.3501 37.4419 51.5209 35.6614 53.2676C35.6614 53.2676 43.7206 50.9168 45.2825 41.2689C46.735 32.225 42.5804 29.0254 31.0071 31.8006C14.8731 35.6369 9.46906 19.2305 9.46906 19.2305C9.46906 19.2305 17.0285 28.9111 24.8534 28.6336C36.7703 28.2091 43.705 23.981 48.1719 28.5193C52.0609 32.4862 49.4526 39.5875 48.5936 42.6565Z" fill="#2980B9"/>
<path d="M53.0488 41.0223C53.0488 41.0223 60.1893 35.2622 57.7057 27.0428C55.8895 21.0562 53.0488 20.3443 53.0488 20.3443C53.0488 20.3443 61.4622 18.8396 65.1256 12.7235C68.789 6.60748 70.45 2.44922 70.45 2.44922C70.45 2.44922 71.6452 10.1024 69.115 16.4773C66.3054 23.5479 64.1322 24.632 64.1322 24.632C64.1322 24.632 65.1256 24.1142 66.4295 22.9978C67.7024 21.9138 68.789 19.9074 68.789 19.9074C68.789 19.9074 67.3454 26.6059 62.5799 32.722C57.8144 38.838 53.0488 41.0223 53.0488 41.0223Z" fill="#00B6EF"/>
<path d="M44.2077 16.5312C46.812 16.5312 48.9232 14.3382 48.9232 11.633C48.9232 8.92785 46.812 6.73486 44.2077 6.73486C41.6034 6.73486 39.4922 8.92785 39.4922 11.633C39.4922 14.3382 41.6034 16.5312 44.2077 16.5312Z" fill="#00B6EF"/>
</svg>
