<svg width="76" height="76" viewBox="0 0 76 76" fill="none" xmlns="http://www.w3.org/2000/svg">
<path d="M34.9625 26.729C34.9625 24.4357 33.0976 22.5717 30.8052 22.5717C28.5125 22.5717 26.6479 24.4357 26.6479 26.729C26.6479 29.0211 28.5124 30.8863 30.8052 30.8863C33.0976 30.8863 34.9625 29.0212 34.9625 26.729ZM29.5353 26.729C29.5353 26.029 30.1051 25.4591 30.8052 25.4591C31.5055 25.4591 32.0751 26.0289 32.0751 26.729C32.0751 27.4284 31.5053 27.9989 30.8052 27.9989C30.1053 27.9989 29.5353 27.4283 29.5353 26.729Z" fill="#00B6EF" stroke="#00B6EF" stroke-width="0.8"/>
<path d="M44.2416 35.699C44.2416 37.992 46.1062 39.8563 48.3989 39.8563C50.6907 39.8563 52.5563 37.9921 52.5563 35.699C52.5563 33.4062 50.6908 31.5417 48.3989 31.5417C46.1062 31.5417 44.2416 33.4062 44.2416 35.699ZM48.3989 34.4291C49.0985 34.4291 49.6688 34.9988 49.6688 35.699C49.6688 36.3985 49.0984 36.9689 48.3989 36.9689C47.6987 36.9689 47.129 36.3986 47.129 35.699C47.129 34.9986 47.6986 34.4291 48.3989 34.4291Z" fill="#00B6EF" stroke="#00B6EF" stroke-width="0.8"/>
<path d="M25.0814 46.0129C25.0814 49.1697 27.6488 51.7371 30.8052 51.7371C33.9615 51.7371 36.5289 49.1697 36.5289 46.0129C36.5289 42.8564 33.9615 40.2897 30.8052 40.2897C27.6489 40.2897 25.0814 42.8564 25.0814 46.0129ZM30.8052 43.1771C32.3689 43.1771 33.6415 44.4498 33.6415 46.0129C33.6415 47.5769 32.3688 48.8497 30.8052 48.8497C29.2413 48.8497 27.9688 47.5769 27.9688 46.0129C27.9688 44.4495 29.2412 43.1771 30.8052 43.1771Z" fill="#00B6EF" stroke="#00B6EF" stroke-width="0.8"/>
<mask id="path-4-outside-1" maskUnits="userSpaceOnUse" x="1.20703" y="1.20728" width="74" height="74" fill="black">
<rect fill="white" x="1.20703" y="1.20728" width="74" height="74"/>
<path d="M69.6997 34.075C67.9978 34.075 66.614 35.2336 66.1539 36.7886H61.5811C60.9913 34.8398 59.8491 33.9096 59.6109 32.8609C59.2975 31.483 60.3473 29.2475 59.4625 27.4142C58.5733 25.5698 56.1447 24.9719 55.2944 23.9071C55.0211 23.5647 54.8291 23.0493 54.6426 22.4977L62.6852 14.4553C63.3587 14.8603 64.0935 15.1467 64.8995 15.1467C66.0704 15.1467 67.1703 14.6908 67.9983 13.8628C69.7067 12.1547 69.7067 9.3743 67.9983 7.66569C66.2861 5.95375 63.514 5.95347 61.8015 7.66569C60.3543 9.11268 60.209 11.2936 61.2126 12.9758L53.8104 20.378C53.1678 19.1417 52.3542 18.4606 50.5059 18.1934C49.9351 18.1111 49.4063 18.5065 49.3233 19.0768C49.2409 19.6474 49.6364 20.1765 50.2078 20.2594C51.689 20.4737 51.9098 20.8834 52.5162 22.7412C53.2791 25.0777 53.713 25.6143 55.8073 26.8656C57.8268 28.073 57.9156 28.3015 57.6123 30.5795C57.2824 33.0555 57.4572 33.7229 58.7715 35.7137C60.0726 37.6878 60.0726 37.9776 58.7715 39.9506C57.4528 41.95 57.2841 42.6185 57.6123 45.0856C57.9162 47.3675 57.8227 47.5944 55.8062 48.7995C53.7133 50.05 53.2791 50.5866 52.5162 52.9242C51.7912 55.1446 51.595 55.2916 49.2883 55.5056C46.8332 55.7327 46.2142 56.0394 44.5412 57.7887C42.9114 59.4926 42.6656 59.5287 40.5276 58.7305C39.6681 58.4102 38.7803 58.0792 37.8323 58.0792C35.969 58.0792 34.085 59.4605 32.9536 59.2037C32.3449 59.0656 31.7521 58.4452 31.124 57.7887C29.4554 56.0442 28.8403 55.7338 26.3766 55.5051C24.0691 55.2916 23.8729 55.1438 23.1484 52.9234C22.3847 50.5863 21.9514 50.05 19.8575 48.7989C17.8383 47.5919 17.749 47.3642 18.0521 45.0853C18.3805 42.6211 18.2124 41.9506 16.8932 39.9506C15.592 37.9776 15.592 37.687 16.8932 35.7134C18.2121 33.7145 18.3808 33.0452 18.0521 30.5787C17.749 28.3001 17.8383 28.0719 19.8581 26.8651C20.6299 26.4039 21.4281 25.9271 22.0017 25.2085C22.5781 24.4863 22.8681 23.599 23.1484 22.7404C23.4281 21.8845 23.692 21.076 24.1679 20.6961C24.6383 20.3198 25.4824 20.2419 26.3766 20.1589C28.8345 19.931 29.4521 19.624 31.124 17.8759C32.7505 16.1751 32.994 16.1339 35.1373 16.9338C37.471 17.8046 38.193 17.8046 40.5276 16.9338C43.1585 15.9521 42.9757 16.3863 45.151 18.4968C45.564 18.8976 46.2251 18.8884 46.6261 18.4743C47.028 18.0607 47.0183 17.3997 46.6039 16.9981C46.4216 16.8219 46.2418 16.6326 46.0494 16.4325C43.7856 14.0668 42.6765 13.9045 39.7975 14.9786C39.4791 15.0968 39.173 15.2062 38.876 15.2981V9.51068C40.4304 9.05006 41.5894 7.66681 41.5894 5.9646C41.5894 3.89278 39.9036 2.20728 37.832 2.20728C35.7602 2.20728 34.0747 3.89278 34.0747 5.9646C34.0747 7.66681 35.2334 9.05006 36.7883 9.51068V15.2981C36.4919 15.2062 36.1858 15.0968 35.8665 14.9786C32.9884 13.9045 31.8788 14.0665 29.6149 16.4328C29.1031 16.968 28.6196 17.4734 28.1395 17.7055C27.6419 17.9455 26.9336 18.0109 26.1835 18.0804C24.0838 18.2753 22.8047 18.5477 21.8539 20.378L16.0162 14.5402C17.1105 12.759 16.9686 10.4283 15.4272 8.88641C13.6243 7.08289 10.6897 7.08289 8.88616 8.88641C5.15166 12.6215 9.70693 18.985 14.54 16.0164L21.0215 22.4977C20.5283 23.9558 20.3424 24.1439 18.7866 25.0732C16.0203 26.7265 15.5692 27.7482 15.9831 30.8548C16.083 31.6051 16.1773 32.3146 16.0529 32.8609C15.8147 33.9096 14.6724 34.8395 14.083 36.7886H9.51043C9.04981 35.2336 7.66656 34.075 5.96436 34.075C3.89254 34.075 2.20703 35.7605 2.20703 37.8323C2.20703 39.9038 3.89254 41.5896 5.96436 41.5896C7.66656 41.5896 9.04981 40.4307 9.51043 38.876H14.083C14.6724 40.8251 15.8147 41.7544 16.0535 42.8034C16.3666 44.181 15.3168 46.4176 16.2013 48.2501C17.091 50.0951 19.5194 50.6923 20.3702 51.7572C20.6432 52.0998 20.835 52.6155 21.0215 53.1669L17.0674 57.1207C15.6429 56.347 13.8444 56.5056 12.6415 57.7094C10.273 60.0784 11.9736 64.1213 15.2984 64.1213C18.0866 64.1213 19.95 61.1867 18.5436 58.5969L21.8542 55.2863C23.4031 58.2674 26.5105 57.1733 28.1395 57.9593C29.3711 58.5535 30.4719 60.7806 32.4913 61.2393C33.9962 61.5816 35.4429 60.7842 36.7883 60.3668V66.1541C35.2334 66.6142 34.0747 67.998 34.0747 69.7C34.0747 71.7715 35.7602 73.4573 37.832 73.4573C39.9036 73.4573 41.5894 71.7715 41.5894 69.7C41.5894 67.998 40.4304 66.6142 38.8757 66.1541V60.3668C40.2409 60.7895 41.6703 61.5813 43.1733 61.2393C45.1875 60.7815 46.3027 58.549 47.5245 57.9593C49.1736 57.1633 52.2524 58.2838 53.8104 55.2863L54.9061 56.3832C55.3142 56.7903 55.9749 56.7903 56.3829 56.3832C56.7904 55.9751 56.7904 55.3141 56.3829 54.9064L54.6426 53.1663C55.136 51.7068 55.3231 51.5201 56.8775 50.591C59.6432 48.9381 60.0952 47.9161 59.681 44.8098C59.4213 42.8596 59.4748 42.6745 60.5132 41.1C60.9493 40.4393 61.3362 39.6848 61.5805 38.876H66.1531C66.614 40.4307 67.9978 41.5896 69.6997 41.5896C71.7712 41.5896 73.457 39.9038 73.457 37.8323C73.457 35.7605 71.7712 34.075 69.6997 34.075V34.075ZM64.8995 8.46976C66.939 8.46976 67.958 10.9515 66.5227 12.3871C65.6254 13.2836 64.1742 13.2839 63.2769 12.3871C61.8408 10.951 62.8608 8.46976 64.8995 8.46976ZM36.1621 5.9646C36.1621 5.04364 36.9111 4.29468 37.832 4.29468C38.7533 4.29468 39.502 5.04364 39.502 5.9646C39.502 6.88584 38.7533 7.63452 37.832 7.63452C36.9111 7.63452 36.1621 6.88584 36.1621 5.9646V5.9646ZM10.3627 13.9516C9.37294 12.9621 9.37294 11.352 10.3627 10.3621C11.3518 9.37319 12.9619 9.37319 13.9513 10.3621C14.941 11.352 14.941 12.9621 13.9513 13.9516C12.9619 14.9413 11.3518 14.9407 10.3627 13.9516ZM5.96436 39.5022C5.04339 39.5022 4.29443 38.7535 4.29443 37.8323C4.29443 36.9113 5.04339 36.1624 5.96436 36.1624C6.8856 36.1624 7.63428 36.9113 7.63428 37.8323C7.63428 38.7535 6.8856 39.5022 5.96436 39.5022ZM16.4793 61.5468C15.8275 62.1984 14.7682 62.1984 14.1172 61.5468C13.0643 60.4939 13.8202 58.6971 15.2978 58.6971C16.7749 58.6971 17.533 60.4931 16.4793 61.5468ZM39.502 69.7C39.502 70.6212 38.7533 71.3699 37.832 71.3699C36.9111 71.3699 36.1621 70.6212 36.1621 69.7C36.1621 68.779 36.9111 68.03 37.832 68.03C38.7533 68.03 39.502 68.779 39.502 69.7ZM69.6997 39.5022C68.7787 39.5022 68.0298 38.7535 68.0298 37.8323C68.0298 36.9113 68.7787 36.1624 69.6997 36.1624C70.6209 36.1624 71.3696 36.9113 71.3696 37.8323C71.3696 38.7535 70.6209 39.5022 69.6997 39.5022Z"/>
</mask>
<path d="M69.6997 34.075C67.9978 34.075 66.614 35.2336 66.1539 36.7886H61.5811C60.9913 34.8398 59.8491 33.9096 59.6109 32.8609C59.2975 31.483 60.3473 29.2475 59.4625 27.4142C58.5733 25.5698 56.1447 24.9719 55.2944 23.9071C55.0211 23.5647 54.8291 23.0493 54.6426 22.4977L62.6852 14.4553C63.3587 14.8603 64.0935 15.1467 64.8995 15.1467C66.0704 15.1467 67.1703 14.6908 67.9983 13.8628C69.7067 12.1547 69.7067 9.3743 67.9983 7.66569C66.2861 5.95375 63.514 5.95347 61.8015 7.66569C60.3543 9.11268 60.209 11.2936 61.2126 12.9758L53.8104 20.378C53.1678 19.1417 52.3542 18.4606 50.5059 18.1934C49.9351 18.1111 49.4063 18.5065 49.3233 19.0768C49.2409 19.6474 49.6364 20.1765 50.2078 20.2594C51.689 20.4737 51.9098 20.8834 52.5162 22.7412C53.2791 25.0777 53.713 25.6143 55.8073 26.8656C57.8268 28.073 57.9156 28.3015 57.6123 30.5795C57.2824 33.0555 57.4572 33.7229 58.7715 35.7137C60.0726 37.6878 60.0726 37.9776 58.7715 39.9506C57.4528 41.95 57.2841 42.6185 57.6123 45.0856C57.9162 47.3675 57.8227 47.5944 55.8062 48.7995C53.7133 50.05 53.2791 50.5866 52.5162 52.9242C51.7912 55.1446 51.595 55.2916 49.2883 55.5056C46.8332 55.7327 46.2142 56.0394 44.5412 57.7887C42.9114 59.4926 42.6656 59.5287 40.5276 58.7305C39.6681 58.4102 38.7803 58.0792 37.8323 58.0792C35.969 58.0792 34.085 59.4605 32.9536 59.2037C32.3449 59.0656 31.7521 58.4452 31.124 57.7887C29.4554 56.0442 28.8403 55.7338 26.3766 55.5051C24.0691 55.2916 23.8729 55.1438 23.1484 52.9234C22.3847 50.5863 21.9514 50.05 19.8575 48.7989C17.8383 47.5919 17.749 47.3642 18.0521 45.0853C18.3805 42.6211 18.2124 41.9506 16.8932 39.9506C15.592 37.9776 15.592 37.687 16.8932 35.7134C18.2121 33.7145 18.3808 33.0452 18.0521 30.5787C17.749 28.3001 17.8383 28.0719 19.8581 26.8651C20.6299 26.4039 21.4281 25.9271 22.0017 25.2085C22.5781 24.4863 22.8681 23.599 23.1484 22.7404C23.4281 21.8845 23.692 21.076 24.1679 20.6961C24.6383 20.3198 25.4824 20.2419 26.3766 20.1589C28.8345 19.931 29.4521 19.624 31.124 17.8759C32.7505 16.1751 32.994 16.1339 35.1373 16.9338C37.471 17.8046 38.193 17.8046 40.5276 16.9338C43.1585 15.9521 42.9757 16.3863 45.151 18.4968C45.564 18.8976 46.2251 18.8884 46.6261 18.4743C47.028 18.0607 47.0183 17.3997 46.6039 16.9981C46.4216 16.8219 46.2418 16.6326 46.0494 16.4325C43.7856 14.0668 42.6765 13.9045 39.7975 14.9786C39.4791 15.0968 39.173 15.2062 38.876 15.2981V9.51068C40.4304 9.05006 41.5894 7.66681 41.5894 5.9646C41.5894 3.89278 39.9036 2.20728 37.832 2.20728C35.7602 2.20728 34.0747 3.89278 34.0747 5.9646C34.0747 7.66681 35.2334 9.05006 36.7883 9.51068V15.2981C36.4919 15.2062 36.1858 15.0968 35.8665 14.9786C32.9884 13.9045 31.8788 14.0665 29.6149 16.4328C29.1031 16.968 28.6196 17.4734 28.1395 17.7055C27.6419 17.9455 26.9336 18.0109 26.1835 18.0804C24.0838 18.2753 22.8047 18.5477 21.8539 20.378L16.0162 14.5402C17.1105 12.759 16.9686 10.4283 15.4272 8.88641C13.6243 7.08289 10.6897 7.08289 8.88616 8.88641C5.15166 12.6215 9.70693 18.985 14.54 16.0164L21.0215 22.4977C20.5283 23.9558 20.3424 24.1439 18.7866 25.0732C16.0203 26.7265 15.5692 27.7482 15.9831 30.8548C16.083 31.6051 16.1773 32.3146 16.0529 32.8609C15.8147 33.9096 14.6724 34.8395 14.083 36.7886H9.51043C9.04981 35.2336 7.66656 34.075 5.96436 34.075C3.89254 34.075 2.20703 35.7605 2.20703 37.8323C2.20703 39.9038 3.89254 41.5896 5.96436 41.5896C7.66656 41.5896 9.04981 40.4307 9.51043 38.876H14.083C14.6724 40.8251 15.8147 41.7544 16.0535 42.8034C16.3666 44.181 15.3168 46.4176 16.2013 48.2501C17.091 50.0951 19.5194 50.6923 20.3702 51.7572C20.6432 52.0998 20.835 52.6155 21.0215 53.1669L17.0674 57.1207C15.6429 56.347 13.8444 56.5056 12.6415 57.7094C10.273 60.0784 11.9736 64.1213 15.2984 64.1213C18.0866 64.1213 19.95 61.1867 18.5436 58.5969L21.8542 55.2863C23.4031 58.2674 26.5105 57.1733 28.1395 57.9593C29.3711 58.5535 30.4719 60.7806 32.4913 61.2393C33.9962 61.5816 35.4429 60.7842 36.7883 60.3668V66.1541C35.2334 66.6142 34.0747 67.998 34.0747 69.7C34.0747 71.7715 35.7602 73.4573 37.832 73.4573C39.9036 73.4573 41.5894 71.7715 41.5894 69.7C41.5894 67.998 40.4304 66.6142 38.8757 66.1541V60.3668C40.2409 60.7895 41.6703 61.5813 43.1733 61.2393C45.1875 60.7815 46.3027 58.549 47.5245 57.9593C49.1736 57.1633 52.2524 58.2838 53.8104 55.2863L54.9061 56.3832C55.3142 56.7903 55.9749 56.7903 56.3829 56.3832C56.7904 55.9751 56.7904 55.3141 56.3829 54.9064L54.6426 53.1663C55.136 51.7068 55.3231 51.5201 56.8775 50.591C59.6432 48.9381 60.0952 47.9161 59.681 44.8098C59.4213 42.8596 59.4748 42.6745 60.5132 41.1C60.9493 40.4393 61.3362 39.6848 61.5805 38.876H66.1531C66.614 40.4307 67.9978 41.5896 69.6997 41.5896C71.7712 41.5896 73.457 39.9038 73.457 37.8323C73.457 35.7605 71.7712 34.075 69.6997 34.075V34.075ZM64.8995 8.46976C66.939 8.46976 67.958 10.9515 66.5227 12.3871C65.6254 13.2836 64.1742 13.2839 63.2769 12.3871C61.8408 10.951 62.8608 8.46976 64.8995 8.46976ZM36.1621 5.9646C36.1621 5.04364 36.9111 4.29468 37.832 4.29468C38.7533 4.29468 39.502 5.04364 39.502 5.9646C39.502 6.88584 38.7533 7.63452 37.832 7.63452C36.9111 7.63452 36.1621 6.88584 36.1621 5.9646V5.9646ZM10.3627 13.9516C9.37294 12.9621 9.37294 11.352 10.3627 10.3621C11.3518 9.37319 12.9619 9.37319 13.9513 10.3621C14.941 11.352 14.941 12.9621 13.9513 13.9516C12.9619 14.9413 11.3518 14.9407 10.3627 13.9516ZM5.96436 39.5022C5.04339 39.5022 4.29443 38.7535 4.29443 37.8323C4.29443 36.9113 5.04339 36.1624 5.96436 36.1624C6.8856 36.1624 7.63428 36.9113 7.63428 37.8323C7.63428 38.7535 6.8856 39.5022 5.96436 39.5022ZM16.4793 61.5468C15.8275 62.1984 14.7682 62.1984 14.1172 61.5468C13.0643 60.4939 13.8202 58.6971 15.2978 58.6971C16.7749 58.6971 17.533 60.4931 16.4793 61.5468ZM39.502 69.7C39.502 70.6212 38.7533 71.3699 37.832 71.3699C36.9111 71.3699 36.1621 70.6212 36.1621 69.7C36.1621 68.779 36.9111 68.03 37.832 68.03C38.7533 68.03 39.502 68.779 39.502 69.7ZM69.6997 39.5022C68.7787 39.5022 68.0298 38.7535 68.0298 37.8323C68.0298 36.9113 68.7787 36.1624 69.6997 36.1624C70.6209 36.1624 71.3696 36.9113 71.3696 37.8323C71.3696 38.7535 70.6209 39.5022 69.6997 39.5022Z" fill="#00B6EF"/>
<path d="M69.6997 34.075C67.9978 34.075 66.614 35.2336 66.1539 36.7886H61.5811C60.9913 34.8398 59.8491 33.9096 59.6109 32.8609C59.2975 31.483 60.3473 29.2475 59.4625 27.4142C58.5733 25.5698 56.1447 24.9719 55.2944 23.9071C55.0211 23.5647 54.8291 23.0493 54.6426 22.4977L62.6852 14.4553C63.3587 14.8603 64.0935 15.1467 64.8995 15.1467C66.0704 15.1467 67.1703 14.6908 67.9983 13.8628C69.7067 12.1547 69.7067 9.3743 67.9983 7.66569C66.2861 5.95375 63.514 5.95347 61.8015 7.66569C60.3543 9.11268 60.209 11.2936 61.2126 12.9758L53.8104 20.378C53.1678 19.1417 52.3542 18.4606 50.5059 18.1934C49.9351 18.1111 49.4063 18.5065 49.3233 19.0768C49.2409 19.6474 49.6364 20.1765 50.2078 20.2594C51.689 20.4737 51.9098 20.8834 52.5162 22.7412C53.2791 25.0777 53.713 25.6143 55.8073 26.8656C57.8268 28.073 57.9156 28.3015 57.6123 30.5795C57.2824 33.0555 57.4572 33.7229 58.7715 35.7137C60.0726 37.6878 60.0726 37.9776 58.7715 39.9506C57.4528 41.95 57.2841 42.6185 57.6123 45.0856C57.9162 47.3675 57.8227 47.5944 55.8062 48.7995C53.7133 50.05 53.2791 50.5866 52.5162 52.9242C51.7912 55.1446 51.595 55.2916 49.2883 55.5056C46.8332 55.7327 46.2142 56.0394 44.5412 57.7887C42.9114 59.4926 42.6656 59.5287 40.5276 58.7305C39.6681 58.4102 38.7803 58.0792 37.8323 58.0792C35.969 58.0792 34.085 59.4605 32.9536 59.2037C32.3449 59.0656 31.7521 58.4452 31.124 57.7887C29.4554 56.0442 28.8403 55.7338 26.3766 55.5051C24.0691 55.2916 23.8729 55.1438 23.1484 52.9234C22.3847 50.5863 21.9514 50.05 19.8575 48.7989C17.8383 47.5919 17.749 47.3642 18.0521 45.0853C18.3805 42.6211 18.2124 41.9506 16.8932 39.9506C15.592 37.9776 15.592 37.687 16.8932 35.7134C18.2121 33.7145 18.3808 33.0452 18.0521 30.5787C17.749 28.3001 17.8383 28.0719 19.8581 26.8651C20.6299 26.4039 21.4281 25.9271 22.0017 25.2085C22.5781 24.4863 22.8681 23.599 23.1484 22.7404C23.4281 21.8845 23.692 21.076 24.1679 20.6961C24.6383 20.3198 25.4824 20.2419 26.3766 20.1589C28.8345 19.931 29.4521 19.624 31.124 17.8759C32.7505 16.1751 32.994 16.1339 35.1373 16.9338C37.471 17.8046 38.193 17.8046 40.5276 16.9338C43.1585 15.9521 42.9757 16.3863 45.151 18.4968C45.564 18.8976 46.2251 18.8884 46.6261 18.4743C47.028 18.0607 47.0183 17.3997 46.6039 16.9981C46.4216 16.8219 46.2418 16.6326 46.0494 16.4325C43.7856 14.0668 42.6765 13.9045 39.7975 14.9786C39.4791 15.0968 39.173 15.2062 38.876 15.2981V9.51068C40.4304 9.05006 41.5894 7.66681 41.5894 5.9646C41.5894 3.89278 39.9036 2.20728 37.832 2.20728C35.7602 2.20728 34.0747 3.89278 34.0747 5.9646C34.0747 7.66681 35.2334 9.05006 36.7883 9.51068V15.2981C36.4919 15.2062 36.1858 15.0968 35.8665 14.9786C32.9884 13.9045 31.8788 14.0665 29.6149 16.4328C29.1031 16.968 28.6196 17.4734 28.1395 17.7055C27.6419 17.9455 26.9336 18.0109 26.1835 18.0804C24.0838 18.2753 22.8047 18.5477 21.8539 20.378L16.0162 14.5402C17.1105 12.759 16.9686 10.4283 15.4272 8.88641C13.6243 7.08289 10.6897 7.08289 8.88616 8.88641C5.15166 12.6215 9.70693 18.985 14.54 16.0164L21.0215 22.4977C20.5283 23.9558 20.3424 24.1439 18.7866 25.0732C16.0203 26.7265 15.5692 27.7482 15.9831 30.8548C16.083 31.6051 16.1773 32.3146 16.0529 32.8609C15.8147 33.9096 14.6724 34.8395 14.083 36.7886H9.51043C9.04981 35.2336 7.66656 34.075 5.96436 34.075C3.89254 34.075 2.20703 35.7605 2.20703 37.8323C2.20703 39.9038 3.89254 41.5896 5.96436 41.5896C7.66656 41.5896 9.04981 40.4307 9.51043 38.876H14.083C14.6724 40.8251 15.8147 41.7544 16.0535 42.8034C16.3666 44.181 15.3168 46.4176 16.2013 48.2501C17.091 50.0951 19.5194 50.6923 20.3702 51.7572C20.6432 52.0998 20.835 52.6155 21.0215 53.1669L17.0674 57.1207C15.6429 56.347 13.8444 56.5056 12.6415 57.7094C10.273 60.0784 11.9736 64.1213 15.2984 64.1213C18.0866 64.1213 19.95 61.1867 18.5436 58.5969L21.8542 55.2863C23.4031 58.2674 26.5105 57.1733 28.1395 57.9593C29.3711 58.5535 30.4719 60.7806 32.4913 61.2393C33.9962 61.5816 35.4429 60.7842 36.7883 60.3668V66.1541C35.2334 66.6142 34.0747 67.998 34.0747 69.7C34.0747 71.7715 35.7602 73.4573 37.832 73.4573C39.9036 73.4573 41.5894 71.7715 41.5894 69.7C41.5894 67.998 40.4304 66.6142 38.8757 66.1541V60.3668C40.2409 60.7895 41.6703 61.5813 43.1733 61.2393C45.1875 60.7815 46.3027 58.549 47.5245 57.9593C49.1736 57.1633 52.2524 58.2838 53.8104 55.2863L54.9061 56.3832C55.3142 56.7903 55.9749 56.7903 56.3829 56.3832C56.7904 55.9751 56.7904 55.3141 56.3829 54.9064L54.6426 53.1663C55.136 51.7068 55.3231 51.5201 56.8775 50.591C59.6432 48.9381 60.0952 47.9161 59.681 44.8098C59.4213 42.8596 59.4748 42.6745 60.5132 41.1C60.9493 40.4393 61.3362 39.6848 61.5805 38.876H66.1531C66.614 40.4307 67.9978 41.5896 69.6997 41.5896C71.7712 41.5896 73.457 39.9038 73.457 37.8323C73.457 35.7605 71.7712 34.075 69.6997 34.075V34.075ZM64.8995 8.46976C66.939 8.46976 67.958 10.9515 66.5227 12.3871C65.6254 13.2836 64.1742 13.2839 63.2769 12.3871C61.8408 10.951 62.8608 8.46976 64.8995 8.46976ZM36.1621 5.9646C36.1621 5.04364 36.9111 4.29468 37.832 4.29468C38.7533 4.29468 39.502 5.04364 39.502 5.9646C39.502 6.88584 38.7533 7.63452 37.832 7.63452C36.9111 7.63452 36.1621 6.88584 36.1621 5.9646V5.9646ZM10.3627 13.9516C9.37294 12.9621 9.37294 11.352 10.3627 10.3621C11.3518 9.37319 12.9619 9.37319 13.9513 10.3621C14.941 11.352 14.941 12.9621 13.9513 13.9516C12.9619 14.9413 11.3518 14.9407 10.3627 13.9516ZM5.96436 39.5022C5.04339 39.5022 4.29443 38.7535 4.29443 37.8323C4.29443 36.9113 5.04339 36.1624 5.96436 36.1624C6.8856 36.1624 7.63428 36.9113 7.63428 37.8323C7.63428 38.7535 6.8856 39.5022 5.96436 39.5022ZM16.4793 61.5468C15.8275 62.1984 14.7682 62.1984 14.1172 61.5468C13.0643 60.4939 13.8202 58.6971 15.2978 58.6971C16.7749 58.6971 17.533 60.4931 16.4793 61.5468ZM39.502 69.7C39.502 70.6212 38.7533 71.3699 37.832 71.3699C36.9111 71.3699 36.1621 70.6212 36.1621 69.7C36.1621 68.779 36.9111 68.03 37.832 68.03C38.7533 68.03 39.502 68.779 39.502 69.7ZM69.6997 39.5022C68.7787 39.5022 68.0298 38.7535 68.0298 37.8323C68.0298 36.9113 68.7787 36.1624 69.6997 36.1624C70.6209 36.1624 71.3696 36.9113 71.3696 37.8323C71.3696 38.7535 70.6209 39.5022 69.6997 39.5022Z" stroke="#00B6EF" stroke-width="1.6" mask="url(#path-4-outside-1)"/>
<path d="M64.9438 64.9426L64.9439 64.9426C65.7447 64.142 65.7445 62.8465 64.9439 62.0458L64.9438 64.9426ZM64.9438 64.9426C64.1433 65.7432 62.8482 65.7433 62.047 64.9427C62.0469 64.9426 62.0469 64.9426 62.0468 64.9425M64.9438 64.9426L62.0468 64.9425M62.0469 62.0458C62.0469 62.0458 62.0469 62.0457 62.047 62.0457C62.8454 61.2476 64.1451 61.2476 64.9438 62.0457L61.7641 61.7629L62.0469 62.0458ZM62.0469 62.0458C61.2488 62.8442 61.2488 64.1441 62.0468 64.9425M62.0469 62.0458L62.0468 64.9425M59.6768 57.6332L59.6768 57.6332L59.6763 57.6327C59.1117 57.0701 58.1985 57.0697 57.6345 57.6329L57.6343 57.6331C57.0703 58.1971 57.0704 59.1113 57.6342 59.6755L57.6343 59.6756L59.2012 61.242C58.2274 63.0898 58.4343 65.4138 60.005 66.9842C61.9338 68.913 65.0565 68.9137 66.9854 66.9842C68.9143 65.0554 68.9143 61.933 66.9855 60.0039C65.415 58.4332 63.0912 58.2263 61.2432 59.2001L59.6768 57.6332Z" fill="#00B6EF" stroke="#00B6EF" stroke-width="0.8"/>
</svg>
