<svg width="73" height="62" viewBox="0 0 73 62" fill="none" xmlns="http://www.w3.org/2000/svg">
<path d="M73 20.9858C73 23.1445 72.6572 25.2824 71.9715 27.3461C68.588 42.3481 39.348 60.6154 38.106 61.3811C37.8471 61.5436 37.5513 61.6208 37.2571 61.6208C36.9608 61.6208 36.6666 61.5441 36.4061 61.3811C35.813 61.0152 21.7894 52.2746 11.8437 41.9185C11.2409 41.2887 11.266 40.2894 11.9077 39.6968C12.5493 39.1033 13.5574 39.128 14.1638 39.7609C22.4659 48.4091 34.0512 56.1134 37.2576 58.1822C42.0964 55.0596 66.0673 39.0422 68.8996 26.5169C69.5167 24.6222 69.8094 22.8154 69.8094 20.9894C69.8094 14.6356 66.3011 8.77645 60.6543 5.68966C58.043 4.27598 55.0894 3.52447 52.1107 3.52447C46.8262 3.52447 41.8595 5.82492 38.4816 9.8434C38.1761 10.2028 37.7289 10.4132 37.254 10.4132C36.7822 10.4132 36.3288 10.2088 36.0269 9.8434C32.6414 5.82795 27.6696 3.52447 22.3866 3.52447C19.4125 3.52447 16.4573 4.27295 13.8378 5.68966C8.19361 8.76989 4.6863 14.6351 4.6863 20.9858C4.6863 22.8083 4.98105 24.6152 5.56185 26.364C5.93438 28.0002 6.67739 29.6738 7.68241 31.4252H18.3624L21.7807 25.781C22.0611 25.3157 22.5677 25.0265 23.1204 25.0174C23.6142 24.9543 24.1863 25.2753 24.4882 25.7351L30.0813 34.2308L36.313 17.6184C36.5438 17.0007 37.1404 16.5888 37.8072 16.5888H37.8102C38.476 16.5888 39.0742 16.9976 39.3045 17.6154L44.5235 31.4247H53.7625C54.6447 31.4247 55.3575 32.1313 55.3575 32.9984C55.3575 33.871 54.6442 34.5715 53.7625 34.5715H43.411C42.7442 34.5715 42.1491 34.1657 41.9122 33.5515L37.8164 22.6877L31.9772 38.2725C31.7699 38.8292 31.2557 39.2259 30.6559 39.287C30.595 39.2936 30.5377 39.2991 30.4799 39.2991C29.9441 39.2991 29.4375 39.0286 29.1402 38.5799L23.2089 29.5694L20.6396 33.8104C20.3525 34.2838 19.8326 34.5786 19.2718 34.5786H1.59553C0.714869 34.5791 0 33.8725 0 33.0054C0 32.1328 0.714869 31.4322 1.59553 31.4322H4.05229C3.3277 29.963 2.78886 28.5418 2.48797 27.1988C1.84474 25.2854 1.49575 23.145 1.49575 20.9888C1.49575 13.4934 5.63554 6.57694 12.2971 2.93497C15.3909 1.26035 18.8762 0.379639 22.3861 0.379639C28.0104 0.379639 33.3322 2.58925 37.2504 6.49719C41.1671 2.58925 46.4828 0.379639 52.1071 0.379639C55.6252 0.379639 59.1023 1.26035 62.1966 2.93497C68.8715 6.57239 73 13.4934 73 20.9858Z" fill="#00B6EF"/>
</svg>
