<svg width="10" height="10" viewBox="0 0 10 10" fill="none" xmlns="http://www.w3.org/2000/svg">
<path d="M6.10138 5.00114L9.84024 1.26212C9.94309 1.15919 9.99984 1.02187 10 0.875449C10 0.728945 9.94325 0.591465 9.84024 0.488701L9.5126 0.16114C9.40959 0.0579689 9.27228 0.00146484 9.12569 0.00146484C8.97935 0.00146484 8.84203 0.0579689 8.73902 0.16114L5.00016 3.89992L1.26114 0.16114C1.15829 0.0579689 1.02089 0.00146484 0.87439 0.00146484C0.728049 0.00146484 0.59065 0.0579689 0.487805 0.16114L0.16 0.488701C-0.0533333 0.702034 -0.0533333 1.04903 0.16 1.26212L3.89894 5.00114L0.16 8.74C0.0570732 8.84309 0.000406511 8.98041 0.000406511 9.12683C0.000406511 9.27326 0.0570732 9.41057 0.16 9.51358L0.487724 9.84114C0.590569 9.94423 0.728049 10.0008 0.874309 10.0008C1.02081 10.0008 1.15821 9.94423 1.26106 9.84114L5.00008 6.10228L8.73894 9.84114C8.84195 9.94423 8.97927 10.0008 9.12561 10.0008H9.12577C9.27219 10.0008 9.40951 9.94423 9.51252 9.84114L9.84016 9.51358C9.94301 9.41065 9.99976 9.27326 9.99976 9.12683C9.99976 8.98041 9.94301 8.84309 9.84016 8.74008L6.10138 5.00114Z" fill="white"/>
</svg>
