<svg width="31" height="31" viewBox="0 0 31 31" fill="none" xmlns="http://www.w3.org/2000/svg">
<g clip-path="url(#clip0)">
<path d="M30.9445 6.10162C30.9341 6.06548 30.9186 6.03187 30.9045 5.997C30.8761 5.9195 30.8399 5.84715 30.796 5.7774C30.774 5.74125 30.7521 5.70765 30.7262 5.67537C30.6758 5.6095 30.619 5.55137 30.557 5.49712C30.5286 5.47127 30.5027 5.44415 30.473 5.4209C30.464 5.41442 30.4575 5.40667 30.4485 5.40025C30.3581 5.33698 30.2612 5.28787 30.1605 5.24912C30.1566 5.24785 30.154 5.24525 30.1501 5.24398L15.9417 0.077271C15.6563 -0.0260825 15.3437 -0.0260825 15.0582 0.077271L0.849896 5.24392C0.846021 5.24519 0.843418 5.24779 0.839543 5.24906C0.738793 5.28781 0.641918 5.33692 0.551521 5.40019C0.5425 5.40667 0.536022 5.41442 0.527 5.42084C0.497272 5.44409 0.471479 5.47121 0.443021 5.49706C0.381021 5.55131 0.324168 5.60944 0.273793 5.67531C0.247939 5.70759 0.226021 5.74119 0.204043 5.77734C0.160146 5.84709 0.123939 5.91944 0.095543 5.99694C0.0813145 6.03181 0.0658145 6.06542 0.0555215 6.10156C0.0219785 6.21654 0 6.3354 0 6.45812V24.5415C0 25.084 0.339729 25.5696 0.849896 25.7556L15.0582 30.9223C15.0673 30.9249 15.0776 30.9235 15.0866 30.9274C15.221 30.9726 15.3592 30.9998 15.5 30.9998C15.6408 30.9998 15.779 30.9726 15.9134 30.9274C15.9224 30.9235 15.9327 30.9248 15.9417 30.9223L30.1501 25.7556C30.6603 25.5696 31 25.084 31 24.5415V6.45812C31 6.3354 30.978 6.21654 30.9445 6.10162ZM15.5 10.2504L5.0711 6.45812L15.5 2.66577L25.9289 6.45812L15.5 10.2504ZM28.4166 23.6373L16.7916 27.8636V12.5289L28.4166 8.30256V23.6373Z" fill="#00B6EF"/>
</g>
<defs>
<clipPath id="clip0">
<rect width="31" height="31" fill="white"/>
</clipPath>
</defs>
</svg>
