<svg width="74" height="74" viewBox="0 0 74 74" fill="none" xmlns="http://www.w3.org/2000/svg">
<g clip-path="url(#clip0)">
<path d="M19.5185 67.8334C18.612 67.8334 17.724 67.5837 16.9532 67.1119C15.0076 66.0081 14.0364 63.7048 14.687 61.6606L18.2544 51.8587C18.2852 51.7415 18.316 51.5843 18.316 51.4609C18.316 50.8535 17.9152 50.2276 17.2924 49.8638C16.5246 49.429 15.5503 49.5092 15.0446 50.0642L8.42779 57.9668C6.94471 59.6194 4.34237 59.9 2.46154 58.753C0.374123 57.5536 -0.557044 55.0376 0.337122 52.9224L2.68354 47.4557C2.89629 46.9593 4.38554 42.4268 5.80696 37.9467C6.78746 34.8479 8.13179 31.8263 9.79987 28.9711C11.1535 26.6093 13.6016 25.1909 16.3427 25.1909C17.6038 25.1909 18.9265 25.5486 20.0643 26.1961C21.3377 26.9484 22.3367 27.9783 22.978 29.1869C24.8404 32.5108 28.377 34.5951 32.191 34.5951H32.5919C33.8776 34.5951 35.185 34.9528 36.3751 35.628C37.072 36.0134 37.701 36.5222 38.2282 37.1296C38.7863 37.774 38.7154 38.7483 38.074 39.3064C37.4327 39.8645 36.4584 39.7936 35.8972 39.1523C35.6135 38.8223 35.2559 38.5356 34.8674 38.3198C34.1243 37.8973 33.3411 37.6784 32.5919 37.6784H32.191C27.2608 37.6784 22.6944 34.9898 20.2709 30.6608C19.8731 29.9146 19.2873 29.3195 18.5165 28.8601C16.4105 27.6638 13.6386 28.4778 12.47 30.5189C10.9099 33.1891 9.65804 36.0011 8.74537 38.884C8.03004 41.141 5.89946 47.7856 5.51712 48.6767L3.17379 54.1373C2.89321 54.8002 3.27246 55.6697 4.03712 56.1075C5.13787 56.7797 5.71446 56.3819 6.09987 55.9503L12.7229 48.0384C14.2399 46.3765 16.7898 46.0404 18.8248 47.1936C20.4189 48.1217 21.3963 49.7528 21.3963 51.464C21.3963 51.8926 21.3254 52.3366 21.1774 52.8299L17.6069 62.6565C17.4188 63.2485 17.8042 64.0502 18.5226 64.4572C18.9265 64.7038 19.2811 64.7501 19.5185 64.7501C19.9872 64.7501 20.4127 64.5558 20.6594 64.2259L24.2021 59.4776C24.6153 58.9164 27.1436 56.1167 31.081 51.7785C33.1376 49.5153 34.9599 47.0302 36.5015 44.3908C36.6156 44.1843 36.7266 43.9407 36.8191 43.6755C37.0103 43.0373 37.5992 42.5655 38.296 42.5655C39.147 42.5655 39.8377 43.2408 39.8377 44.0918V44.1226C39.8377 44.2891 39.81 44.4525 39.7575 44.6098C39.6065 45.0692 39.4153 45.4885 39.1871 45.9078C37.516 48.7692 35.5642 51.4301 33.3627 53.8505C31.488 55.9163 27.0974 60.7479 26.678 61.3153L23.126 66.0728C22.2997 67.1767 20.9523 67.8334 19.5185 67.8334V67.8334Z" fill="#00B6EF"/>
<path d="M59.2404 55.5C56.9402 55.5 54.9546 53.9737 54.5167 51.8709L52.7037 41.6157C52.5619 40.9374 51.7726 40.3917 50.8753 40.3917C49.9781 40.3917 49.1887 40.9374 49.0377 41.662L47.2401 51.8247C46.793 53.9738 44.8073 55.5 42.5102 55.5C40.0528 55.5 37.9993 53.7857 37.728 51.5102L37.025 45.6087C36.9787 45.2232 36.4145 42.4421 34.9684 35.7944C34.2685 32.5908 33.917 29.3102 33.917 26.0418C33.917 21.8824 37.2994 18.5 41.4588 18.5C42.8556 18.5 44.2246 18.8792 45.424 19.5977C48.7879 21.6142 52.9627 21.6142 56.3267 19.5977C57.5261 18.8792 58.8982 18.5 60.2918 18.5C64.4512 18.5 67.8336 21.8824 67.8336 26.0418C67.8336 29.3132 67.4821 32.5939 66.7853 35.7975C64.96 44.1811 64.7472 45.4267 64.7287 45.6087L64.0257 51.5133C63.7544 53.7857 61.6978 55.5 59.2404 55.5ZM50.8753 37.3083C53.2402 37.3083 55.2814 38.8747 55.7316 41.0361L57.5446 51.2882C57.6741 51.911 58.4079 52.4167 59.2404 52.4167C60.1222 52.4167 60.8776 51.8586 60.9609 51.1463L61.667 45.2448C61.6947 45.0167 61.778 44.3229 63.7729 35.1438C64.4204 32.1561 64.7503 29.0943 64.7503 26.0418C64.7503 23.5844 62.7523 21.5833 60.2918 21.5833C59.4562 21.5833 58.633 21.8115 57.9146 22.2432C53.5732 24.8486 48.1805 24.8486 43.8392 22.2432C43.1177 21.8115 42.2944 21.5833 41.4588 21.5833C38.9983 21.5833 37.0003 23.5813 37.0003 26.0418C37.0003 29.0913 37.3302 32.153 37.9777 35.1408C39.3005 41.2149 40.0066 44.6128 40.0837 45.2418L40.7867 51.1463C40.873 51.8586 41.6284 52.4167 42.5102 52.4167C43.3427 52.4167 44.0766 51.911 44.2153 51.2419L46.0129 41.0823C46.4692 38.8747 48.5104 37.3083 50.8753 37.3083Z" fill="#00B6EF"/>
<path d="M1.54195 37C0.931449 37 0.351783 36.6331 0.111283 36.0318C-0.2063 35.2425 0.179116 34.3452 0.971533 34.0276L8.67987 30.9443C9.46303 30.6267 10.3664 31.0121 10.684 31.8045C11.0016 32.5939 10.6162 33.4911 9.82378 33.8087L2.11545 36.8921C1.92737 36.9661 1.73312 37 1.54195 37Z" fill="#00B6EF"/>
<path d="M72.4591 36.9999C72.2278 36.9999 71.9935 36.9475 71.7715 36.8365L65.6048 33.7532C64.8432 33.3708 64.5349 32.4458 64.9141 31.6843C65.2965 30.9227 66.2184 30.6174 66.9831 30.9936L73.1498 34.0769C73.9114 34.4593 74.2197 35.3843 73.8404 36.1458C73.566 36.6885 73.0233 36.9999 72.4591 36.9999Z" fill="#00B6EF"/>
<path d="M20.8835 17.2482C20.6584 17.2482 20.4333 17.1988 20.2175 17.0971L16.2893 15.2039C15.5215 14.8339 15.2009 13.912 15.5678 13.1473C15.9409 12.3796 16.8628 12.0558 17.6275 12.4258L21.5556 14.319C22.3234 14.689 22.6471 15.6109 22.2771 16.3756C22.0089 16.9275 21.457 17.2482 20.8835 17.2482Z" fill="#00B6EF"/>
<path d="M32.525 13.1781C32.2999 13.1781 32.0748 13.1287 31.859 13.027C31.0912 12.657 30.7675 11.7351 31.1375 10.9704L33.0307 7.04222C33.4037 6.27447 34.3256 5.9538 35.0872 6.32072C35.855 6.69072 36.1787 7.61263 35.8087 8.3773L33.9156 12.3055C33.6504 12.8574 33.0985 13.1781 32.525 13.1781Z" fill="#00B6EF"/>
<path d="M25.6914 12.3025C25.0531 12.3025 24.4581 11.9047 24.2361 11.2695L23.2186 8.35887C22.938 7.5572 23.3604 6.67845 24.1651 6.39479C24.9761 6.12037 25.8486 6.5397 26.1292 7.34137L27.1467 10.252C27.4273 11.0568 27.0049 11.9355 26.2001 12.2161C26.0306 12.2747 25.861 12.3025 25.6914 12.3025Z" fill="#00B6EF"/>
</g>
<defs>
<clipPath id="clip0">
<rect width="74" height="74" fill="white"/>
</clipPath>
</defs>
</svg>
