<svg width="20" height="14" viewBox="0 0 20 14" fill="none" xmlns="http://www.w3.org/2000/svg">
<path d="M9.99973 4.27246C8.49517 4.27246 7.27246 5.49517 7.27246 6.99974C7.27246 8.5043 8.49517 9.72701 9.99973 9.72701C11.5043 9.72701 12.727 8.5043 12.727 6.99974C12.727 5.49517 11.5042 4.27246 9.99973 4.27246Z" fill="#81949A"/>
<path d="M10 0.181641C5.45455 0.181641 1.57274 3.00889 0 6.99983C1.57274 10.9907 5.45455 13.818 10 13.818C14.55 13.818 18.4273 10.9907 20 6.99983C18.4273 3.00889 14.55 0.181641 10 0.181641ZM10 11.5453C7.49093 11.5453 5.45455 9.50888 5.45455 6.99978C5.45455 4.49069 7.49093 2.45436 10 2.45436C12.5091 2.45436 14.5455 4.49073 14.5455 6.99983C14.5455 9.50892 12.5091 11.5453 10 11.5453Z" fill="#81949A"/>
</svg>
