<svg width="58" height="58" viewBox="0 0 58 58" fill="none" xmlns="http://www.w3.org/2000/svg">
<path d="M6.40562 21.0743C-2.04126 29.4855 -2.04126 43.1718 6.40563 51.583C14.8525 59.9943 28.5967 59.9943 37.0436 51.583C44.9904 43.6697 45.4598 31.0883 38.4541 22.6221L48.6069 12.5121L54.0427 17.925C54.8614 18.7402 56.189 18.7402 57.0077 17.925C57.8264 17.1097 57.8264 15.7878 57.0077 14.9725L51.5719 9.55965L57.0077 4.1468C57.8264 3.33153 57.8264 2.00961 57.0077 1.19434C56.189 0.379066 54.8614 0.379065 54.0427 1.19434L48.6069 6.60719L43.1712 1.19434C42.3525 0.379067 41.0249 0.379067 40.2062 1.19434C39.3875 2.00961 39.3875 3.33153 40.2062 4.1468L45.642 9.55965L35.4892 19.6697C26.9871 12.6935 14.3524 13.161 6.40562 21.0743ZM34.0786 48.6306C27.2666 55.4138 16.1826 55.4138 9.37059 48.6306C2.55858 41.8473 2.55858 30.81 9.37059 24.0267C16.1826 17.2434 27.2666 17.2434 34.0786 24.0267C40.8906 30.81 40.8906 41.8473 34.0786 48.6306Z" fill="#00B6EF"/>
</svg>
