<svg width="13" height="15" viewBox="0 0 13 15" fill="none" xmlns="http://www.w3.org/2000/svg">
<path d="M11.479 2.60804C10.3338 0.950713 8.51898 0 6.5001 0C4.48123 0 2.66637 0.950713 1.52124 2.60804C0.381743 4.25698 0.118628 6.34459 0.816011 8.18897C1.00254 8.69265 1.29906 9.18199 1.69521 9.64055L6.10081 14.8154C6.20045 14.9325 6.34644 15 6.5001 15C6.65376 15 6.79975 14.9325 6.89939 14.8154L11.3038 9.64195C11.7017 9.18076 11.9978 8.69194 12.1828 8.19232C12.8816 6.34459 12.6185 4.25698 11.479 2.60804ZM11.2006 7.82499C11.058 8.21048 10.8251 8.5916 10.5089 8.95819C10.508 8.95907 10.5071 8.95995 10.5064 8.96101L6.5001 13.6666L2.49135 8.95805C2.17527 8.59178 1.94239 8.21068 1.79833 7.8215C1.2216 6.29616 1.44047 4.57011 2.38401 3.20455C3.3305 1.83463 4.83085 1.04895 6.5001 1.04895C8.16932 1.04895 9.6695 1.8346 10.616 3.20455C11.5597 4.57011 11.7788 6.29616 11.2006 7.82499Z" fill="#00B6EF"/>
<path d="M6.49981 3.11182C4.8804 3.11182 3.56274 4.4293 3.56274 6.04889C3.56274 7.66848 4.88022 8.98596 6.49981 8.98596C8.1194 8.98596 9.43688 7.66848 9.43688 6.04889C9.43688 4.42947 8.11923 3.11182 6.49981 3.11182ZM6.49981 7.93698C5.45872 7.93698 4.61169 7.08995 4.61169 6.04886C4.61169 5.00776 5.45872 4.16073 6.49981 4.16073C7.54091 4.16073 8.38794 5.00776 8.38794 6.04886C8.38794 7.08995 7.54091 7.93698 6.49981 7.93698Z" fill="#00B6EF"/>
</svg>
