<svg width="71" height="71" viewBox="0 0 71 71" fill="none" xmlns="http://www.w3.org/2000/svg">
<g clip-path="url(#clip0)">
<path d="M67.282 28.4169C67.3253 28.3264 67.3584 28.2316 67.3811 28.1336C68.146 24.8336 66.5908 22.6176 65.2512 21.5678C64.9473 19.0929 62.6143 17.5095 60.7049 16.7452C60.5104 14.4138 59.6253 12.5206 58.0658 11.1073C55.5133 8.79488 51.8564 8.48287 50.0683 8.48287C50.0499 8.48287 50.032 8.48287 50.0136 8.48287C48.2716 5.50522 44.2853 5.36763 41.9609 5.79936C40.5975 5.33351 39.2227 4.963 37.8701 4.69594C37.1166 4.54752 36.3837 5.03721 36.2348 5.79177C36.0858 6.5458 36.5766 7.27816 37.3311 7.42712C38.674 7.69255 40.0444 8.07119 41.4024 8.55275C41.6543 8.64267 41.9263 8.65729 42.1863 8.59608C42.2328 8.58525 46.8269 7.54088 47.8344 10.3766C48.0484 10.9773 48.6453 11.3554 49.2802 11.2958C49.3241 11.2915 53.7085 10.9064 56.2045 13.1782C57.0826 13.9777 57.6248 15.0091 57.8464 16.3075C55.9684 16.3974 53.0389 17.0572 51.5141 20.0766C51.1674 20.7629 51.442 21.5998 52.1284 21.947C52.3299 22.0483 52.5444 22.0965 52.7551 22.0965C53.2637 22.0965 53.754 21.817 53.9988 21.3322C55.2826 18.7917 58.4726 19.0468 59.0516 19.1162C59.5662 19.2852 62.6186 20.3734 62.4957 22.239C62.4594 22.7915 62.7541 23.3131 63.2464 23.5672C63.2513 23.5694 63.7453 23.8472 64.1738 24.4306C64.7366 25.1966 64.9213 26.1375 64.7253 27.2306L64.6315 27.3552C62.4708 27.5925 59.2212 28.9521 58.7775 32.9714C58.6936 33.7357 59.2445 34.4236 60.0088 34.5082C60.0608 34.5136 60.1123 34.5163 60.1632 34.5163C60.8636 34.5163 61.4665 33.9892 61.545 33.2769C61.8262 30.7299 64.0135 30.2234 64.9566 30.1237C71.0565 34.5981 66.7506 45.0326 66.4657 45.7015C64.9555 48.5887 63.0601 50.0659 60.6843 50.2008C59.6659 49.3498 56.9997 47.4577 52.3402 46.3413C51.5921 46.162 50.8408 46.623 50.6615 47.3705C50.4827 48.1185 50.9431 48.8699 51.6912 49.0486C55.6726 50.0025 57.9455 51.5696 58.784 52.2435C58.7732 52.6254 58.7228 53.0029 58.6302 53.3696C57.64 57.3034 52.3158 59.3666 46.7613 57.968C45.8421 57.7362 44.9516 57.4171 44.1147 57.019C43.703 56.8229 43.2214 56.8413 42.8255 57.0677C42.43 57.2936 42.17 57.6999 42.1299 58.1538C41.9707 59.956 42.0481 61.6921 42.3591 63.3334L38.7038 63.9412C38.5478 63.3876 38.3912 62.7403 38.2217 62.0366C37.4048 58.6538 36.225 53.7737 32.7561 49.7696C35.6438 49.0665 38.4221 48.6023 41.0406 48.3872C41.8071 48.3244 42.3775 47.6522 42.3141 46.8862C42.2513 46.1197 41.5785 45.5504 40.8131 45.6127C37.3523 45.8965 33.6417 46.5888 29.7827 47.6695C26.245 48.1483 23.7673 47.9566 23.49 47.9322C17.4556 47.0254 15.7704 43.3793 16.1626 40.5284C16.2254 40.0718 16.0581 39.6135 15.7157 39.3048C15.3734 38.996 14.901 38.8768 14.453 38.9863L13.4439 39.2333C11.684 39.1461 7.28493 38.4646 5.30507 36.1592C4.44487 35.1571 4.11553 33.947 4.29916 32.4595C4.36958 31.8853 4.07815 31.3274 3.5668 31.0582C3.56084 31.0549 2.96824 30.6979 2.82252 30.069C2.64918 29.3199 3.15187 28.4229 3.60417 27.8026C3.87773 27.4272 3.94598 26.9397 3.78618 26.5037C3.77535 26.4744 2.74885 23.513 3.92106 21.0548C4.57325 19.6871 5.82346 18.6785 7.63756 18.0577C8.163 17.8779 8.53026 17.4126 8.5736 16.859C8.57522 16.8411 8.75235 15.0757 10.0383 14.1169C10.9267 13.455 12.2083 13.2855 13.8469 13.6132C14.2185 13.6868 14.6036 13.6072 14.9146 13.3911C15.2255 13.1749 15.4351 12.8418 15.4947 12.4675C15.4996 12.4372 16.1231 9.54024 21.5545 9.43732C22.3785 10.5624 24.1963 13.5184 22.8475 16.1667C22.4987 16.8519 22.7717 17.6904 23.4564 18.0393C23.659 18.1422 23.8746 18.191 24.0869 18.191C24.5939 18.191 25.0831 17.9131 25.329 17.4304C25.8306 16.4451 26.0614 15.4571 26.109 14.5032C26.8604 14.1836 28.0304 13.8401 28.9643 14.118C29.5715 14.2979 30.0384 14.7388 30.3921 15.4647C30.6332 15.9598 31.1288 16.2474 31.6451 16.2474C31.8493 16.2474 32.0573 16.2019 32.2539 16.106C32.9451 15.7696 33.2322 14.936 32.8953 14.2448C32.2003 12.8191 31.1153 11.8522 29.7567 11.4486C28.3099 11.019 26.8376 11.2931 25.7483 11.6604C25.3848 10.4178 24.8133 9.33819 24.3106 8.54354C24.9661 8.25807 25.8512 7.92547 26.9411 7.63892C27.6848 7.44392 28.1295 6.68231 27.934 5.93911C27.7384 5.19484 26.9768 4.7512 26.2336 4.9462C24.0333 5.52418 22.5258 6.27604 21.8573 6.64926C16.2189 6.65035 14.0392 9.11339 13.2185 10.7081C11.2755 10.5245 9.63909 10.927 8.34121 11.909C6.82829 13.0536 6.2086 14.7009 5.95942 15.7182C3.82031 16.6141 2.29113 18.0035 1.40764 19.8561C0.125471 22.5456 0.619488 25.4393 0.958041 26.7496C0.106512 28.1238 -0.178957 29.4493 0.110303 30.6974C0.355145 31.7558 0.960208 32.492 1.46993 32.9481C1.40547 34.8765 1.98291 36.5638 3.19249 37.9728C6.19126 41.4639 12.1682 41.952 13.3486 42.0148C13.6524 45.8971 16.6079 49.7279 23.1189 50.6916C23.1395 50.6948 23.1606 50.6975 23.1818 50.6997C23.2397 50.7056 23.9607 50.7761 25.179 50.7761C26.2851 50.7761 27.8029 50.7176 29.6062 50.4987C33.4467 54.1291 34.6379 59.0557 35.5149 62.6899C35.8345 64.0127 36.1102 65.1556 36.4699 66.0364C36.686 66.5662 37.2 66.902 37.758 66.902C37.8338 66.902 37.9102 66.8961 37.9871 66.8831L44.2864 65.8349C44.6786 65.7694 45.0242 65.5397 45.236 65.2033C45.4478 64.8669 45.5057 64.4558 45.3947 64.0739C45.0512 62.8892 44.8649 61.6276 44.8373 60.3048C45.2457 60.4413 45.6612 60.5621 46.081 60.6678C49.4205 61.5085 52.8206 61.3259 55.6558 60.1532C58.634 58.9214 60.6491 56.7536 61.33 54.0495C61.4237 53.6757 61.4892 53.2954 61.5282 52.9114C63.9046 52.5809 66.7652 51.1666 68.9585 46.942C68.9715 46.9171 68.9834 46.8922 68.9948 46.8667C69.0549 46.7318 70.4736 43.511 70.8885 39.5832C71.401 34.7292 70.1573 30.9021 67.282 28.4169Z" fill="#00B6EF"/>
<path d="M32.3833 24.3261C32.3979 24.4068 32.7597 26.3254 34.0907 28.2083C34.4081 28.6574 34.797 29.1265 35.2672 29.5761C35.0169 31.0062 32.8296 31.7889 32.7782 31.8068C32.0523 32.0543 31.6634 32.8425 31.9082 33.5694C32.1043 34.1506 32.646 34.5174 33.2272 34.5174C33.3751 34.5174 33.5251 34.4935 33.6725 34.4437C34.9595 34.0098 36.8294 32.9291 37.6566 31.1925C38.7389 31.6811 40.0438 31.9974 41.6109 31.9974C41.7106 31.9974 41.8119 31.9958 41.9137 31.9936C42.6824 31.9736 43.2896 31.335 43.2695 30.5663C43.2506 29.8096 42.6314 29.2094 41.8785 29.2094C41.8666 29.2094 41.8547 29.2099 41.8427 29.2099C36.2569 29.3502 35.1681 24.0639 35.1209 23.8212C34.9806 23.0677 34.257 22.5683 33.5024 22.707C32.7462 22.8445 32.2451 23.5699 32.3833 24.3261Z" fill="#00B6EF"/>
<path d="M49.3554 36.5498C51.7724 32.3263 50.8179 29.0604 49.5921 27.0643C48.2969 24.9566 46.4308 23.8462 46.3523 23.8001C45.6909 23.4123 44.8442 23.6333 44.4531 24.292C44.062 24.9512 44.2803 25.8038 44.9374 26.1982C44.9514 26.2063 46.3485 27.0557 47.2672 28.6006C48.4269 30.5506 48.3159 32.7596 46.9384 35.1669C46.5565 35.8342 46.7883 36.6847 47.4557 37.0666C47.6734 37.1917 47.9112 37.2508 48.1452 37.2508C48.629 37.2508 49.0981 36.9994 49.3554 36.5498Z" fill="#00B6EF"/>
<path d="M64.1097 39.8037C64.7354 39.3568 64.8805 38.4874 64.4336 37.8617C63.9868 37.2361 63.1173 37.0909 62.4917 37.5378C61.1342 38.5074 59.8992 38.872 58.8207 38.6206C57.1956 38.2431 56.2726 36.5747 56.2509 36.5357C55.8934 35.8591 55.0565 35.598 54.3767 35.9523C53.6947 36.3082 53.4304 37.1489 53.7862 37.8303C53.841 37.9349 55.0473 40.1986 57.4562 41.1086C57.025 42.8117 56.7504 45.8169 59.267 47.9214C59.5276 48.1392 59.8439 48.2459 60.1592 48.2459C60.5573 48.2459 60.9522 48.0758 61.2279 47.747C61.7209 47.1571 61.6429 46.279 61.053 45.7855C59.5167 44.5006 59.9485 42.3924 60.2513 41.4379C61.5085 41.2841 62.7999 40.7392 64.1097 39.8037Z" fill="#00B6EF"/>
<path d="M23.1258 30.8631C23.0293 30.1004 22.3327 29.5614 21.5695 29.6573C20.8068 29.7537 20.2667 30.4509 20.3637 31.2136C20.6053 33.1187 19.1108 34.5054 18.2257 35.1484C15.9977 34.0455 13.5027 34.4658 13.3786 34.4875C12.6241 34.6208 12.1219 35.339 12.2519 36.0941C12.3819 36.8493 13.1013 37.3568 13.8569 37.2306C13.8808 37.2263 16.2306 36.8498 17.6368 38.0686C18.4396 38.7647 18.828 39.9288 18.7906 41.5284C18.7728 42.297 19.3816 42.9346 20.1503 42.9524C20.1611 42.953 20.1719 42.953 20.1833 42.953C20.9368 42.953 21.5565 42.3512 21.5744 41.5934C21.6182 39.7213 21.2196 38.1807 20.3881 36.9933C21.7526 35.8607 23.4984 33.8023 23.1258 30.8631Z" fill="#00B6EF"/>
<path d="M10.0346 23.565C9.88347 23.9269 9.6538 24.2508 9.364 24.5455C8.60889 25.3152 7.66093 25.6012 7.62518 25.6121C6.88849 25.8163 6.45351 26.5768 6.65285 27.3162C6.82023 27.937 7.38251 28.346 7.9957 28.346C8.11595 28.346 8.23783 28.3302 8.35971 28.2972C8.44746 28.2734 10.196 27.7853 11.5465 26.2838C12.476 26.9739 13.568 27.3341 14.7646 27.3341C15.0978 27.3341 15.4385 27.3065 15.7862 27.2501C17.3636 26.9961 18.5451 26.2523 18.6745 26.1684C19.3197 25.7502 19.5038 24.8884 19.0857 24.2432C18.6675 23.5981 17.8056 23.4139 17.16 23.8321C17.1524 23.837 16.342 24.3402 15.3437 24.5016C14.3405 24.6636 13.5485 24.435 12.8958 23.7871C13.2111 22.5873 13.1731 21.2504 12.7772 19.7927C12.5762 19.0506 11.8119 18.6124 11.0692 18.8139C10.3271 19.0154 9.88889 19.7797 10.0904 20.5218C10.41 21.7005 10.4013 22.6864 10.0606 23.5044C10.0519 23.5244 10.0433 23.5444 10.0346 23.565Z" fill="#00B6EF"/>
<path d="M42.6123 11.7227C40.2608 10.3278 37.5583 11.0483 37.4445 11.0797C36.7035 11.2839 36.268 12.0504 36.4722 12.7914C36.6759 13.5325 37.4435 13.9674 38.184 13.7643C38.2002 13.7594 39.8686 13.332 41.1914 14.117C41.9785 14.5839 42.5218 15.436 42.8073 16.6488C42.9584 17.2902 43.5299 17.7224 44.1615 17.7224C44.2671 17.7224 44.3738 17.71 44.4811 17.685C45.2297 17.509 45.6939 16.7593 45.5173 16.0112C45.052 14.0335 44.0748 12.5905 42.6123 11.7227Z" fill="#00B6EF"/>
<path d="M37.57 37.9707C36.5782 39.6748 35.1449 40.5876 33.3108 40.6835C31.8374 40.7598 30.6229 40.2848 30.5931 40.2723C29.8835 39.982 29.0731 40.32 28.7801 41.0285C28.486 41.7392 28.8234 42.5534 29.5336 42.847C29.6972 42.9147 31.1099 43.4764 32.9798 43.4764C33.0946 43.4764 33.2116 43.4742 33.3303 43.4694C35.3177 43.3941 38.0846 42.6216 39.9768 39.3709C40.3635 38.7068 40.1382 37.8542 39.4735 37.4675C38.8094 37.0807 37.9568 37.306 37.57 37.9707Z" fill="#00B6EF"/>
<path d="M47.6497 46.1355C47.3209 45.6453 46.7056 45.4102 46.1314 45.5651C45.5761 45.7141 45.165 46.201 45.1065 46.7725C45.0475 47.3499 45.373 47.9203 45.8968 48.1668C46.4076 48.4068 47.0306 48.3131 47.4428 47.9252C47.9357 47.4621 48.0246 46.6956 47.6497 46.1355Z" fill="#00B6EF"/>
<path d="M30.8112 6.08165C31.0322 6.61683 31.5853 6.96785 32.1632 6.94022C32.7293 6.91259 33.232 6.53287 33.414 5.9966C33.5987 5.45437 33.4227 4.83793 32.9801 4.47392C32.5126 4.08932 31.8279 4.05465 31.3247 4.39158C30.7803 4.75614 30.5604 5.47441 30.8112 6.08165Z" fill="#00B6EF"/>
</g>
<defs>
<clipPath id="clip0">
<rect width="71" height="71" fill="white"/>
</clipPath>
</defs>
</svg>
