<svg width="20" height="20" viewBox="0 0 20 20" fill="none" xmlns="http://www.w3.org/2000/svg">
<path d="M18.1502 4.22769C18.1499 4.22124 18.1492 4.2148 18.1481 4.20839C18.1231 4.17268 18.0924 4.14195 18.0666 4.10695C17.8799 3.85258 17.6822 3.60776 17.4736 3.37244C17.4165 3.30813 17.3593 3.24454 17.3007 3.18166C17.0859 2.95161 16.8606 2.73224 16.6248 2.52363C16.5812 2.48503 16.5405 2.44505 16.4969 2.40717C15.9158 1.90935 15.2796 1.47974 14.6007 1.12682C14.5735 1.11254 14.5449 1.1004 14.517 1.08608C14.2147 0.932441 13.9047 0.794329 13.5882 0.672378C13.5167 0.646673 13.4517 0.622349 13.3839 0.600915C13.1024 0.499477 12.8165 0.41064 12.5265 0.334404C12.4407 0.311546 12.355 0.287976 12.2678 0.267965C11.982 0.201526 11.6963 0.150786 11.404 0.10934C11.3154 0.0964875 11.2282 0.079323 11.1389 0.0686057C10.3862 -0.0228686 9.62525 -0.0228686 8.87252 0.0686057C8.78323 0.079323 8.69606 0.0964875 8.60744 0.10934C8.31522 0.150786 8.02656 0.201526 7.7436 0.267965C7.65644 0.287976 7.5707 0.311546 7.48496 0.334404C7.19295 0.410598 6.90719 0.499435 6.62757 0.600915C6.55611 0.625196 6.49109 0.64952 6.42323 0.672378C6.10678 0.794329 5.79673 0.932399 5.49438 1.08608C5.4665 1.10036 5.43795 1.1125 5.41078 1.12682C4.7296 1.47936 4.0912 1.90893 3.50807 2.40717C3.46449 2.44501 3.42375 2.48503 3.38017 2.52363C3.142 2.73321 2.91669 2.95258 2.70427 3.18166C2.6457 3.24454 2.58851 3.30813 2.53137 3.37244C2.32225 3.60726 2.12457 3.85208 1.93835 4.10691C1.91265 4.14191 1.88192 4.17264 1.85689 4.20835C1.85362 4.21459 1.85073 4.22103 1.8483 4.22765C-0.616101 7.68136 -0.616101 12.3187 1.8483 15.7724C1.85073 15.779 1.85358 15.7854 1.85689 15.7917C1.88188 15.8274 1.91261 15.8581 1.93835 15.8931C2.12461 16.1475 2.32225 16.3923 2.53137 16.6276C2.58851 16.6919 2.6457 16.7555 2.70427 16.8184C2.91958 17.0484 3.14485 17.2678 3.38017 17.4764C3.42375 17.515 3.46449 17.555 3.50807 17.5929C4.08915 18.0907 4.72541 18.5203 5.40433 18.8732C5.4315 18.8875 5.46005 18.8997 5.48793 18.914C5.79028 19.0676 6.10029 19.2057 6.41678 19.3277C6.48825 19.3534 6.55326 19.3777 6.62113 19.3991C6.90262 19.5006 7.18843 19.5894 7.47851 19.6657C7.56425 19.6885 7.64999 19.7121 7.73715 19.7321C8.02296 19.7985 8.30873 19.8493 8.60099 19.8907C8.68957 19.9036 8.77674 19.9207 8.86608 19.9315C9.61876 20.0229 10.3797 20.0229 11.1325 19.9315C11.2218 19.9207 11.3089 19.9036 11.3975 19.8907C11.6898 19.8493 11.9784 19.7985 12.2614 19.7321C12.3485 19.7121 12.4343 19.6885 12.52 19.6657C12.8125 19.5895 13.0983 19.5006 13.3774 19.3991C13.4489 19.3749 13.5139 19.3505 13.5818 19.3277C13.8982 19.2057 14.2083 19.0677 14.5106 18.914C14.5385 18.8997 14.567 18.8876 14.5942 18.8732C15.2731 18.5203 15.9094 18.0907 16.4905 17.5929C16.534 17.555 16.5748 17.515 16.6184 17.4764C16.8565 17.2673 17.0818 17.048 17.2943 16.8184C17.3528 16.7555 17.41 16.6919 17.4672 16.6276C17.6763 16.3923 17.874 16.1475 18.0602 15.8931C18.0859 15.8581 18.1166 15.8274 18.1416 15.7917C18.1449 15.7854 18.1478 15.779 18.1502 15.7724C20.6146 12.3187 20.6146 7.6814 18.1502 4.22769ZM17.335 5.57954C18.0183 6.70491 18.4309 7.97357 18.5403 9.28561H14.2605C14.2081 8.43425 14.0742 7.58992 13.8604 6.76419C15.0694 6.53778 16.2395 6.13881 17.335 5.57954ZM11.8205 1.62338C11.8606 1.63267 11.8991 1.64552 11.9391 1.65482C12.1949 1.71485 12.4486 1.78342 12.6965 1.86916C12.7344 1.88201 12.7715 1.89704 12.8087 1.91061C13.0545 1.99635 13.2967 2.09138 13.5339 2.19642C13.5754 2.21572 13.6161 2.23715 13.6576 2.25645C13.8848 2.36459 14.1067 2.48152 14.3235 2.60728L14.4664 2.69373C14.6721 2.81949 14.8722 2.95404 15.0665 3.09743C15.1166 3.13385 15.1665 3.16889 15.2159 3.20887C15.4064 3.35176 15.5888 3.5049 15.7632 3.6683C15.8089 3.70974 15.856 3.75048 15.9011 3.79335C16.084 3.96696 16.2583 4.15058 16.4269 4.34064C16.4483 4.36563 16.4712 4.38849 16.4926 4.4121C15.5252 4.87316 14.5003 5.20238 13.4454 5.39094C12.9566 4.04742 12.311 2.76628 11.522 1.57414C11.6212 1.59198 11.7227 1.60198 11.8205 1.62338ZM7.17064 9.28557C7.22699 8.5125 7.35861 7.74675 7.56362 6.99921C8.37316 7.09538 9.18768 7.14306 10.0029 7.1421C10.8189 7.14185 11.6342 7.09295 12.4443 6.99561C12.649 7.74436 12.7799 8.51132 12.8351 9.28557H7.17064ZM12.8351 10.7146C12.7788 11.4876 12.6472 12.2534 12.4422 13.0009C11.6326 12.9048 10.8181 12.8571 10.0029 12.858C9.18693 12.8571 8.3717 12.9048 7.56145 13.0009C7.35702 12.2534 7.22615 11.4876 7.1706 10.7146H12.8351ZM10.0029 1.89206C10.816 3.04447 11.4847 4.29225 11.9942 5.60742C11.3327 5.67767 10.6681 5.71297 10.0029 5.71317C9.33843 5.71238 8.67446 5.67688 8.01371 5.60671C8.52379 4.29241 9.19174 3.04506 10.0029 1.89206ZM3.57962 4.33989C3.74753 4.14982 3.92257 3.9662 4.10548 3.79259C4.15048 3.74972 4.19766 3.70899 4.24338 3.66754C4.41963 3.50703 4.60208 3.35389 4.79068 3.20812C4.83999 3.17023 4.88998 3.13666 4.94001 3.09668C5.13434 2.95379 5.33442 2.8192 5.54018 2.69297L5.68306 2.60652C5.8998 2.47984 6.12176 2.36287 6.34896 2.2557C6.39041 2.2364 6.43114 2.21496 6.47259 2.19566C6.70979 2.08849 6.95202 1.99346 7.19781 1.90985C7.23494 1.89629 7.26927 1.88126 7.30997 1.86841C7.55789 1.78552 7.81012 1.71694 8.06734 1.65406C8.10736 1.64477 8.14592 1.63192 8.18665 1.62333C8.28453 1.6019 8.38601 1.59189 8.48532 1.57402C7.69592 2.76636 7.05011 4.04776 6.56118 5.39153C5.50623 5.20297 4.4813 4.87375 3.51389 4.41269C3.53532 4.38774 3.55818 4.36488 3.57962 4.33989ZM2.67078 5.57954C3.766 6.13877 4.93591 6.53774 6.14462 6.76419C5.93115 7.58997 5.7974 8.43429 5.74523 9.28561H1.46545C1.57489 7.97357 1.9875 6.70491 2.67078 5.57954ZM2.67078 14.4206C1.98746 13.2953 1.57484 12.0266 1.46545 10.7146H5.74523C5.79765 11.5659 5.93161 12.4103 6.14533 13.236C4.93641 13.4624 3.76625 13.8613 2.67078 14.4206ZM8.18523 18.3768C8.14521 18.3675 8.10665 18.3546 8.06663 18.3453C7.81083 18.2853 7.55718 18.2167 7.30925 18.131C7.27137 18.1181 7.23423 18.1031 7.19706 18.0895C6.95127 18.0038 6.70908 17.9088 6.47184 17.8037C6.43039 17.7844 6.38966 17.763 6.34821 17.7437C6.12101 17.6356 5.89904 17.5186 5.68231 17.3929L5.53943 17.3064C5.33366 17.1807 5.13359 17.0461 4.93925 16.9027C4.88923 16.8663 4.83924 16.8313 4.78992 16.7913C4.5994 16.6484 4.41695 16.4952 4.24263 16.3319C4.19691 16.2904 4.14973 16.2497 4.10472 16.2068C3.92182 16.0332 3.74749 15.8496 3.57886 15.6595C3.55743 15.6345 3.53457 15.6117 3.51313 15.588C4.48059 15.127 5.50547 14.7978 6.56042 14.6092C7.04915 15.9527 7.69474 17.2339 8.48381 18.426C8.38455 18.4082 8.28311 18.3982 8.18523 18.3768ZM10.0029 18.1081C9.18977 16.9557 8.52103 15.7079 8.01158 14.3928C9.33479 14.2503 10.6695 14.2503 11.9927 14.3928L11.992 14.3935C11.482 15.7077 10.814 16.9551 10.0029 18.1081ZM16.4262 15.6603C16.2582 15.8503 16.0832 16.0339 15.9003 16.2076C15.8553 16.2504 15.8081 16.2912 15.7624 16.3326C15.5861 16.4936 15.4037 16.6468 15.2151 16.792C15.1658 16.8299 15.1158 16.867 15.0658 16.9035C14.8714 17.0464 14.6714 17.1809 14.4656 17.3072L14.3227 17.3936C14.1064 17.5198 13.8845 17.6368 13.6568 17.7444C13.6154 17.7637 13.5746 17.7852 13.5332 17.8045C13.296 17.9117 13.0538 18.0067 12.808 18.0903C12.7708 18.1039 12.7365 18.1189 12.6958 18.1317C12.4479 18.2146 12.1957 18.2832 11.9384 18.3461C11.8984 18.3554 11.8599 18.3682 11.8191 18.3768C11.7212 18.3982 11.6198 18.4083 11.5205 18.4261C12.3095 17.234 12.9552 15.9528 13.4438 14.6093C14.4988 14.7979 15.5237 15.1271 16.4911 15.5882C16.4705 15.6124 16.4476 15.6353 16.4262 15.6603ZM17.335 14.4206C16.2398 13.8614 15.0699 13.4624 13.8612 13.236C14.0746 12.4102 14.2084 11.5659 14.2605 10.7146H18.5403C18.4309 12.0266 18.0183 13.2952 17.335 14.4206Z" fill="#81949A"/>
</svg>
