<svg width="69" height="73" viewBox="0 0 69 73" fill="none" xmlns="http://www.w3.org/2000/svg">
<path d="M68.5164 71.3217C65.6137 67.1343 62.234 62.265 59.6958 58.6144C59.3589 58.1298 58.6926 58.0098 58.2076 58.3468C57.7227 58.6839 57.6029 59.3501 57.94 59.835C60.1447 63.0063 62.9848 67.0971 65.5953 70.8616H50.4012C47.8737 67.1087 46.0541 64.3921 44.9899 62.7833C44.3372 61.7961 43.2501 61.1931 42.0817 61.1703C40.0121 61.1301 37.703 59.8216 35.747 57.5805C34.1827 55.788 33.1247 53.7648 32.0047 51.6227C31.5379 50.73 31.0815 49.8561 30.6365 48.9511C29.8541 47.36 29.0598 45.7562 27.9481 44.3636C27.1879 43.4113 26.187 42.5774 25.2688 41.7671C24.3754 40.933 24.2837 39.5442 25.0613 38.5997C25.8619 37.6279 27.3138 37.4767 28.2933 38.2597L33.3079 42.3088C34.7995 43.709 36.2962 45.3046 37.1633 47.1841C37.3437 47.5752 37.7307 47.8056 38.1347 47.8056C38.2847 47.8056 38.437 47.7739 38.582 47.7069C39.1181 47.4596 39.3523 46.8242 39.1048 46.2881C38.3981 44.7566 37.1716 43.2499 36.2882 42.275V33.9906C36.2882 33.9906 43.242 37.4538 43.744 37.7243C45.059 38.4329 46.4188 39.1658 47.6662 39.9421C49.4368 41.0438 50.5908 42.0356 51.4082 43.1577C52.3275 44.4198 52.6835 45.9552 52.5984 48.2918C52.589 48.5504 52.5666 48.823 52.543 49.1115C52.435 50.4276 52.3012 52.0631 53.4429 53.3904C53.5185 53.494 53.8448 53.9544 55.1007 55.7556C55.4384 56.2399 56.1047 56.359 56.5893 56.0211C57.0737 55.6833 57.1926 55.0168 56.8548 54.5324C55.1693 52.1153 55.1333 52.0745 55.0753 52.0091C54.5426 51.4035 54.5684 50.5763 54.6742 49.286C54.6987 48.9866 54.7241 48.6769 54.7352 48.3696C54.8044 46.4735 54.6852 44.0244 53.1365 41.8986C51.8716 40.1623 50.1524 38.9707 48.796 38.1267C47.492 37.315 46.1023 36.5662 44.7583 35.842C44.2619 35.5745 36.2882 31.629 36.2882 31.629V27.7957C36.2882 23.9143 34.2754 20.4614 30.6207 18.0729C30.259 17.8365 30.0431 17.4306 30.0431 16.9943L30.1512 1.07646C30.1532 0.791594 30.0414 0.517844 29.8407 0.315811C29.6398 0.113635 29.3669 0 29.082 0H15.0884C14.5007 0 14.0233 0.474215 14.0192 1.06164L13.9908 5.09888C13.9867 5.68929 14.4619 6.17135 15.0525 6.17563C15.645 6.17335 16.1249 5.70441 16.1292 5.11399L16.15 2.13839H28.0057L27.9049 16.987C27.9049 18.155 28.4828 19.2302 29.451 19.863C32.4811 21.8433 34.1498 24.6605 34.1498 27.7957V40.2318C34.1424 40.2283 34.1347 40.2256 34.1271 40.222L29.6327 36.5928C27.7406 35.0806 24.95 35.3715 23.4108 37.2404C21.9109 39.0617 22.093 41.743 23.8254 43.3447C23.8316 43.3504 23.8379 43.356 23.8441 43.3616C24.5609 43.9936 25.297 44.5745 25.9319 45.2874C26.7296 46.183 27.3481 47.2205 27.9043 48.2782V55.0247C27.904 56.8058 25.737 57.8521 24.4174 56.566C24.0174 56.1761 23.7969 55.6535 23.7969 55.095V47.1435C23.7969 46.5529 23.3183 46.0743 22.7277 46.0743C22.1372 46.0743 21.6585 46.5529 21.6585 47.1435V56.9145C21.6584 58.0568 20.7619 59.0092 19.6597 59.0378C19.1021 59.0509 18.5716 58.8456 18.1718 58.4556C17.7717 58.0657 17.5513 57.5434 17.5513 56.9846V38.0039C17.5513 37.4134 17.0727 36.9347 16.4821 36.9347C15.8915 36.9347 15.4129 37.4134 15.4129 38.0039V53.2439C15.4129 54.6975 13.9977 55.6835 12.6428 55.1399C11.8438 54.8194 11.3057 54.0357 11.3057 53.1735C11.3057 53.1265 11.3057 31.8193 11.3057 31.8193C11.3057 31.3839 11.0415 30.9918 10.6378 30.8284C10.2339 30.6644 9.77166 30.7625 9.46854 31.0753L7.86668 32.7288C6.44589 34.1958 4.15052 34.3665 2.52841 33.1263C2.42447 33.0469 2.40308 32.9015 2.47993 32.7952L2.86789 32.2584C4.54689 29.9348 6.28292 27.5321 8.23211 25.4066C9.75555 23.7455 11.6125 22.391 13.0601 21.3964C13.7229 20.941 14.4772 20.3892 15.0412 19.5994C15.6915 18.6884 16.0495 17.5759 16.0495 16.4718C16.0497 16.4464 16.0678 13.0677 16.0893 10.0053C16.0934 9.41472 15.6181 8.93281 15.0277 8.92853C14.4334 8.92411 13.9552 9.39961 13.9509 9.99016C13.9292 13.0949 13.9111 16.4585 13.9111 16.4665C13.9111 17.1245 13.6887 17.8136 13.3008 18.3569C12.9389 18.8637 12.3617 19.2817 11.8492 19.634C10.3083 20.6928 8.32549 22.1412 6.65619 23.9614C4.6226 26.1789 2.84964 28.633 1.13471 31.0062L0.747467 31.5418C-0.0140423 32.5945 0.197829 34.0368 1.22967 34.8254C3.62598 36.6568 6.98013 36.4779 9.16713 34.4473V53.1737C9.16713 55.4652 10.9984 57.3766 13.2493 57.4345C14.0209 57.4547 14.761 57.2684 15.4129 56.9009V56.9849C15.4129 58.1251 15.8627 59.1913 16.6794 59.9873C17.4692 60.7571 18.5036 61.177 19.6034 61.177C19.6405 61.177 19.6777 61.1764 19.7149 61.1754C21.3993 61.1321 22.8488 60.0505 23.4716 58.5484C24.1966 59.0506 25.0573 59.3099 25.9606 59.2858C28.2113 59.228 30.0426 57.3165 30.0427 55.025V52.4857C30.0427 52.4857 32.4052 57.0034 34.1361 58.9866C35.5183 60.57 38.383 63.2371 42.0404 63.3084C42.5056 63.3174 42.9415 63.562 43.2064 63.9627C44.3181 65.6434 46.249 68.5253 48.9456 72.5282C49.1443 72.8232 49.4765 73 49.8323 73H67.6377C68.0355 73 68.4004 72.7791 68.585 72.4267C68.7693 72.0744 68.7431 71.6486 68.5164 71.3217Z" fill="#00B6EF"/>
</svg>
