<svg width="17" height="15" viewBox="0 0 17 15" fill="none" xmlns="http://www.w3.org/2000/svg">
<path d="M12.4732 14.7732C12.2715 14.7734 12.0729 14.7241 11.8946 14.6298L8.58335 12.8894C8.55769 12.8757 8.52904 12.8685 8.49994 12.8685C8.47085 12.8685 8.4422 12.8757 8.41654 12.8894L5.10579 14.6298C4.90062 14.7378 4.66934 14.7862 4.4381 14.7695C4.20686 14.7528 3.9849 14.6718 3.79734 14.5355C3.60977 14.3993 3.46409 14.2132 3.37677 13.9984C3.28946 13.7837 3.26399 13.5488 3.30326 13.3203L3.93544 9.63393C3.9403 9.60505 3.938 9.57541 3.92874 9.54762C3.91947 9.51984 3.90353 9.49475 3.88232 9.47455L1.20588 6.8624C1.03971 6.7005 0.922198 6.4953 0.866669 6.27004C0.81114 6.04478 0.81981 5.80848 0.891697 5.58789C0.963584 5.36731 1.09581 5.17127 1.27341 5.02199C1.451 4.8727 1.66685 4.77614 1.89651 4.74324L5.5956 4.20615C5.62438 4.20196 5.65171 4.19082 5.67522 4.1737C5.69874 4.15657 5.71772 4.13398 5.73054 4.10787L7.38432 0.753023C7.48675 0.545049 7.64537 0.369911 7.84221 0.24744C8.03905 0.124969 8.26625 0.0600586 8.49808 0.0600586C8.72991 0.0600586 8.95711 0.124969 9.15396 0.24744C9.3508 0.369911 9.50942 0.545049 9.61185 0.753023L11.2667 4.1068C11.2796 4.13283 11.2986 4.15536 11.3221 4.17247C11.3456 4.18958 11.3729 4.20077 11.4016 4.20509L15.1039 4.74271C15.3335 4.7758 15.5492 4.87246 15.7266 5.02177C15.9041 5.17107 16.0362 5.36707 16.1081 5.58757C16.1799 5.80807 16.1887 6.04429 16.1333 6.26949C16.0778 6.49469 15.9605 6.69988 15.7945 6.86187L13.1154 9.47243C13.0943 9.49268 13.0784 9.51777 13.0692 9.54554C13.0599 9.57331 13.0576 9.60292 13.0623 9.6318L13.6945 13.3181C13.7249 13.4963 13.7162 13.6789 13.6688 13.8533C13.6215 14.0276 13.5367 14.1896 13.4204 14.3279C13.3041 14.4662 13.1591 14.5775 12.9954 14.654C12.8317 14.7306 12.6533 14.7705 12.4726 14.7711L12.4732 14.7732ZM8.49994 11.8057C8.70143 11.8056 8.89986 11.8549 9.07794 11.9491L12.3887 13.689C12.418 13.7057 12.4516 13.7134 12.4853 13.711C12.5189 13.7087 12.5511 13.6964 12.5778 13.6757C12.6057 13.6566 12.6273 13.6298 12.64 13.5985C12.6528 13.5673 12.6561 13.5329 12.6495 13.4998L12.0168 9.81296C11.983 9.61454 11.9978 9.41088 12.06 9.21944C12.1222 9.028 12.2299 8.8545 12.3738 8.7138L15.0529 6.10271C15.0768 6.07929 15.0937 6.04965 15.1017 6.01713C15.1097 5.98462 15.1084 5.95053 15.098 5.9187C15.0876 5.88688 15.0685 5.85859 15.0429 5.83704C15.0173 5.81548 14.9862 5.80151 14.953 5.79671L11.2513 5.25855C11.052 5.2297 10.8627 5.15275 10.6998 5.03437C10.5369 4.91599 10.4053 4.75973 10.3163 4.57909L8.65932 1.22477C8.64448 1.19475 8.62154 1.16948 8.5931 1.15181C8.56465 1.13415 8.53183 1.12478 8.49835 1.12478C8.46486 1.12478 8.43205 1.13415 8.4036 1.15181C8.37516 1.16948 8.35222 1.19475 8.33738 1.22477L6.6836 4.57802C6.59456 4.75873 6.46284 4.91504 6.29984 5.03342C6.13684 5.15181 5.94746 5.22872 5.74807 5.25749L2.04685 5.79671C2.01365 5.80141 1.98244 5.81533 1.95677 5.8369C1.9311 5.85846 1.91199 5.88681 1.90164 5.91869C1.89129 5.95058 1.8901 5.98474 1.89821 6.01727C1.90632 6.04981 1.9234 6.07941 1.94751 6.10271L4.62607 8.7138C4.77001 8.8545 4.87769 9.028 4.93987 9.21944C5.00204 9.41088 5.01687 9.61454 4.98307 9.81296L4.35035 13.4998C4.34461 13.533 4.34828 13.567 4.36095 13.5982C4.37362 13.6293 4.39478 13.6563 4.42201 13.676C4.44925 13.6957 4.48147 13.7073 4.51501 13.7096C4.54855 13.7119 4.58206 13.7048 4.61172 13.689L7.92194 11.9486C8.10015 11.8547 8.29853 11.8057 8.49994 11.8057Z" fill="#F87700"/>
</svg>
