<svg width="72" height="70" viewBox="0 0 72 70" fill="none" xmlns="http://www.w3.org/2000/svg">
<path d="M71.9128 39.1365C71.3808 35.4504 68.4851 32.5547 64.799 32.0227V29.8411C64.799 23.822 60.2235 18.9213 54.5992 18.9213C49.1369 18.9213 44.5637 23.6732 44.3993 29.5147H44.4689L44.3993 29.5267V53.1747C44.3993 60.7346 38.7474 66.8737 31.7995 66.8737C24.8516 66.8737 19.1997 60.7262 19.1997 53.1747V51.1264C20.9397 51.1264 22.7997 49.8652 22.7997 46.3265V43.3085C30.5011 41.3393 35.9995 34.7262 35.9995 27.2287V24.7268H33.5995L33.5491 9.10899C33.5317 6.21809 31.4572 3.74972 28.6124 3.23508C27.9987 1.35516 25.9772 0.328573 24.0971 0.942364C22.2172 1.556 21.1906 3.57752 21.8044 5.4576C22.4181 7.33752 24.4396 8.36411 26.3197 7.75031C27.3263 7.42167 28.1358 6.66433 28.5308 5.68184C30.0681 6.11924 31.1331 7.51782 31.1455 9.11619L31.1995 24.7268H28.7996V27.2635C28.7039 31.4375 25.9055 35.0648 21.8925 36.2166C19.7453 36.8979 17.4398 36.8979 15.2926 36.2166C11.2842 35.0609 8.49212 31.4342 8.39987 27.2635V24.7268H4.79993V9.12699C4.80683 7.50507 5.89761 6.08789 7.46389 5.66624C8.19423 7.52547 10.2934 8.44045 12.1527 7.71011C14.0119 6.97978 14.9269 4.88041 14.1965 3.02133C13.4662 1.16226 11.3668 0.247124 9.50776 0.977463C8.50037 1.37331 7.72308 2.19934 7.38949 3.22908C4.51358 3.72047 2.40791 6.20939 2.39996 9.12699V24.7268H0V27.2227C0 34.7286 5.50192 41.3441 13.1998 43.3085V46.3265C13.1998 49.8652 15.0598 51.1264 16.7997 51.1264V53.1747C16.7997 62.0546 23.528 69.2737 31.7995 69.2737C40.071 69.2737 46.7993 62.0462 46.7993 53.1747V29.5843C46.9193 25.0304 50.4208 21.3248 54.5992 21.3248C58.8999 21.3248 62.3991 25.1456 62.3991 29.8447V32.0227C57.8075 32.6853 54.6226 36.9448 55.2853 41.5364C55.948 46.128 60.2074 49.3129 64.799 48.6502C69.3906 47.9875 72.5755 43.7279 71.9128 39.1365ZM25.1996 5.52705C24.5369 5.52705 23.9996 4.98975 23.9996 4.32706C23.9996 3.66437 24.5369 3.12708 25.1996 3.12708C25.8623 3.12708 26.3996 3.66437 26.3996 4.32706C26.3996 4.98975 25.8623 5.52705 25.1996 5.52705ZM10.7998 3.12708C11.4625 3.12708 11.9998 3.66437 11.9998 4.32706C11.9998 4.98975 11.4625 5.52705 10.7998 5.52705C10.1371 5.52705 9.59986 4.98975 9.59986 4.32706C9.59986 3.66437 10.1371 3.12708 10.7998 3.12708ZM2.39996 27.2227V27.1267H5.99991V27.2635C6.08991 32.4791 9.55981 37.0308 14.5654 38.499C17.1884 39.3295 20.0038 39.3295 22.6269 38.499C27.6348 37.0327 31.1079 32.4809 31.1995 27.2635V27.1267H33.5995V27.2227C33.5995 33.8982 28.454 39.7721 21.3597 41.1929C19.6938 41.5265 17.9874 41.6102 16.297 41.4413C15.7405 41.3873 15.1873 41.3036 14.6398 41.1905C7.54549 39.7721 2.39996 33.8982 2.39996 27.2227ZM16.7997 48.7264C15.7198 48.7264 15.5998 47.0464 15.5998 46.3265V43.7801C15.6958 43.7921 15.7942 43.7969 15.8914 43.8065C16.0114 43.8197 16.1314 43.8293 16.2514 43.8401C16.8189 43.8905 17.3913 43.9241 17.9685 43.9253H18.0285C18.6045 43.9253 19.1757 43.8905 19.7397 43.8401C19.8597 43.8293 19.9869 43.8197 20.1105 43.8065C20.2053 43.7957 20.3037 43.7921 20.3985 43.7801V46.3265C20.3985 47.0464 20.2785 48.7264 19.1985 48.7264H16.7997ZM63.599 46.3265C60.2854 46.3265 57.5991 43.6401 57.5991 40.3265C57.5991 37.0129 60.2854 34.3266 63.599 34.3266C66.9126 34.3266 69.599 37.0129 69.599 40.3265C69.5951 43.6386 66.911 46.3225 63.599 46.3265Z" fill="#00B6EF"/>
</svg>
